<?xml version="1.0" standalone="no"?>
<!DOCTYPE svg PUBLIC "-//W3C//DTD SVG 20010904//EN"
 "http://www.w3.org/TR/2001/REC-SVG-20010904/DTD/svg10.dtd">
<svg version="1.0" xmlns="http://www.w3.org/2000/svg"
 width="1024.000000pt" height="1024.000000pt" viewBox="0 0 1024.000000 1024.000000"
 preserveAspectRatio="xMidYMid meet">

<g transform="translate(0.000000,1024.000000) scale(0.100000,-0.100000)"
fill="#000000" stroke="none">
<path d="M4800 9334 c-888 -80 -1602 -363 -2302 -914 -171 -135 -501 -464
-642 -640 -498 -624 -794 -1339 -902 -2175 -23 -178 -27 -748 -6 -920 41 -335
88 -560 172 -834 314 -1015 1028 -1902 1960 -2433 363 -207 786 -365 1199
-448 565 -114 1228 -108 1775 15 897 202 1752 746 2341 1490 450 567 765 1285
869 1980 124 829 26 1621 -294 2371 -494 1156 -1557 2068 -2774 2379 -381 97
-607 126 -1031 130 -176 1 -340 1 -365 -1z m790 -159 c907 -106 1704 -488
2379 -1140 676 -653 1102 -1563 1191 -2545 39 -430 -11 -1017 -121 -1420 -231
-841 -691 -1568 -1332 -2102 -756 -629 -1608 -939 -2584 -938 -397 1 -670 36
-1053 136 -680 177 -1324 557 -1830 1080 -483 499 -825 1089 -1015 1749 -167
581 -199 1210 -94 1834 86 513 295 1054 585 1511 245 388 634 803 1014 1082
586 430 1265 691 1970 757 63 6 131 13 150 15 83 10 613 -4 740 -19z"/>
<path d="M4880 9038 c-353 -18 -666 -77 -1015 -193 -347 -114 -753 -324 -1033
-532 -247 -184 -521 -441 -711 -668 -496 -593 -803 -1331 -886 -2130 -17 -164
-20 -575 -4 -750 66 -764 357 -1497 833 -2095 194 -242 322 -379 511 -541 661
-568 1407 -880 2269 -950 184 -15 561 -7 736 15 449 58 852 174 1215 352 325
158 650 378 925 625 348 313 633 682 858 1110 220 418 365 900 428 1419 25
206 25 661 1 860 -84 682 -293 1251 -657 1789 -232 344 -442 566 -820 870
-543 437 -1225 719 -1935 800 -123 14 -457 33 -525 29 -30 -2 -116 -6 -190
-10z m695 -143 c471 -56 856 -173 1276 -386 437 -222 937 -630 1225 -1000 441
-565 703 -1190 796 -1897 19 -140 22 -215 22 -467 0 -407 -21 -594 -110 -955
-111 -452 -264 -803 -521 -1195 -249 -379 -500 -646 -878 -937 -549 -421
-1199 -678 -1876 -743 -405 -39 -762 -20 -1144 60 -670 141 -1223 423 -1764
899 -184 162 -419 430 -584 668 -538 771 -765 1735 -637 2698 111 830 453
1534 1046 2148 308 320 591 528 999 734 445 225 905 349 1440 388 166 12 553
4 710 -15z"/>
<path d="M5549 8636 c-100 -27 -191 -97 -236 -183 -43 -81 -57 -150 -51 -252
7 -109 39 -181 114 -257 91 -90 202 -134 341 -134 216 0 366 128 404 344 40
234 -83 420 -318 481 -68 18 -190 18 -254 1z m279 -139 c23 -15 52 -46 64 -70
46 -86 21 -319 -44 -418 -28 -42 -99 -79 -151 -79 -153 0 -236 109 -224 294 9
143 58 244 139 285 62 32 159 26 216 -12z"/>
<path d="M4570 8629 c-56 -6 -163 -28 -222 -45 -33 -10 -22 -56 22 -94 l41
-35 24 -190 c14 -104 27 -201 30 -215 13 -61 8 -146 -10 -173 -15 -23 -16 -32
-6 -53 8 -17 17 -24 29 -20 52 16 283 47 399 52 102 5 139 11 152 23 24 22 58
246 40 267 -18 22 -46 17 -66 -12 -40 -59 -107 -124 -136 -133 -18 -5 -60 -15
-95 -22 -53 -10 -66 -10 -77 2 -7 8 -32 115 -54 239 -22 124 -43 239 -47 256
-5 25 0 37 30 73 40 48 41 51 24 72 -10 12 -27 13 -78 8z"/>
<path d="M6472 8408 c-18 -18 -15 -38 14 -80 l27 -38 -41 -88 c-179 -385 -213
-442 -259 -442 -25 0 -58 -42 -50 -64 3 -8 67 -44 142 -80 110 -52 141 -64
156 -55 23 12 24 28 2 73 -16 34 -16 37 17 120 35 91 49 110 76 104 41 -8 53
-47 60 -188 9 -194 33 -238 169 -311 54 -28 65 -31 79 -20 24 20 20 48 -14 94
-25 36 -30 54 -35 127 -3 47 -8 112 -10 145 l-5 60 52 1 c154 2 262 170 199
309 -34 76 -125 140 -331 234 -63 29 -132 63 -152 76 -47 31 -80 39 -96 23z
m305 -244 c83 -48 101 -100 62 -181 -27 -56 -62 -83 -108 -83 -36 0 -133 39
-145 58 -3 5 19 62 49 126 62 131 57 128 142 80z"/>
<path d="M3585 8329 c-16 -10 -59 -31 -95 -46 -88 -36 -107 -54 -94 -90 6 -19
18 -29 34 -31 52 -8 47 14 90 -362 l29 -255 -21 -41 c-24 -49 -21 -88 7 -91
24 -3 224 105 239 129 14 23 -18 58 -54 58 -39 0 -54 24 -55 83 l0 51 125 58
c139 64 132 65 186 -13 l27 -39 -23 -25 c-16 -17 -21 -31 -16 -49 9 -37 33
-34 157 24 59 28 114 50 122 50 19 0 47 32 47 54 0 9 -14 25 -31 34 -52 28
-161 122 -381 328 -224 210 -230 214 -293 173z m144 -313 c50 -49 91 -90 91
-92 0 -2 -6 -4 -13 -4 -7 0 -46 -16 -86 -35 -41 -20 -75 -34 -77 -33 -3 4 -34
234 -34 256 0 21 21 5 119 -92z"/>
<path d="M2945 7934 c-55 -42 -104 -83 -109 -91 -13 -23 18 -47 57 -45 22 2
39 -4 49 -15 24 -28 185 -401 176 -408 -5 -3 -376 209 -389 222 -6 6 -14 26
-18 45 -12 59 -37 49 -139 -57 -50 -52 -92 -101 -92 -109 0 -20 17 -30 103
-56 87 -27 99 -36 120 -100 9 -25 36 -94 60 -153 25 -59 42 -107 38 -105 -81
35 -373 194 -381 208 -5 10 -10 34 -10 54 0 38 -11 50 -38 42 -23 -8 -232
-251 -232 -271 0 -8 9 -19 21 -25 16 -9 26 -8 44 4 14 9 35 16 48 16 13 0 133
-52 268 -116 403 -191 395 -189 449 -104 l33 51 -32 61 c-34 63 -134 308 -129
313 2 2 82 -36 178 -85 96 -49 183 -89 194 -90 20 0 83 62 96 95 5 14 -12 66
-57 175 -105 254 -185 463 -190 498 -3 18 0 46 7 62 10 24 10 33 0 45 -7 8
-15 15 -19 15 -3 0 -51 -35 -106 -76z"/>
<path d="M7317 7908 c-19 -10 -23 -43 -7 -53 26 -16 -11 -389 -45 -455 -22
-42 -143 -178 -164 -185 -11 -3 -30 -1 -42 5 -18 10 -25 9 -42 -8 -29 -30 -16
-60 48 -110 30 -24 72 -64 92 -88 21 -25 50 -52 65 -60 23 -12 29 -12 42 2 19
18 20 25 4 59 -15 34 -4 57 73 149 l61 73 200 43 c169 36 206 42 242 33 47
-10 86 -1 86 20 0 7 -39 57 -86 111 -66 74 -91 96 -107 94 -18 -2 -23 -11 -25
-46 -4 -49 -14 -55 -163 -96 -80 -22 -89 -23 -89 -8 0 31 40 226 47 233 5 4
26 9 48 11 33 2 41 7 43 26 3 19 -20 46 -114 135 -64 62 -124 115 -134 118 -9
4 -24 3 -33 -3z"/>
<path d="M4825 7645 c-625 -72 -1255 -424 -1657 -925 -382 -478 -585 -1072
-565 -1659 7 -202 27 -348 77 -546 48 -191 92 -310 190 -510 141 -290 285
-489 521 -722 149 -147 199 -188 349 -288 303 -203 729 -359 1095 -401 180
-20 471 -15 640 11 370 57 730 196 1035 400 692 463 1111 1220 1134 2050 19
721 -252 1392 -765 1890 -401 389 -905 633 -1449 701 -139 17 -451 17 -605 -1z
m674 -139 c308 -55 587 -157 837 -306 435 -260 789 -661 979 -1105 218 -510
261 -1035 129 -1565 -72 -287 -239 -639 -412 -865 l-30 -40 -159 0 -159 0 96
91 c156 151 252 300 306 479 25 82 28 105 28 260 1 191 -9 247 -69 372 -45 96
-84 151 -168 240 -131 138 -271 223 -427 258 -144 33 -358 21 -467 -26 l-43
-18 0 133 c0 112 3 136 17 147 25 21 53 90 53 132 0 20 2 37 5 37 2 0 26 -14
52 -30 105 -67 282 -90 417 -55 203 53 358 222 401 437 21 110 2 239 -55 374
-45 103 -203 230 -345 275 -38 12 -71 23 -73 25 -2 1 13 34 32 73 26 50 36 84
36 116 l0 45 -1357 -2 -1357 -3 -4 -41 c-3 -33 5 -58 32 -113 20 -39 36 -72
36 -75 0 -2 -21 -9 -46 -15 -147 -37 -304 -166 -369 -303 -86 -181 -85 -353 3
-523 92 -177 274 -285 482 -285 101 0 185 21 268 66 67 36 77 40 67 24 -14
-22 16 -118 46 -149 l29 -31 0 -305 0 -305 -57 7 c-220 29 -434 -14 -626 -128
-87 -51 -257 -219 -305 -301 -98 -165 -127 -287 -119 -488 5 -143 33 -246 91
-342 l35 -58 -42 0 c-40 1 -44 4 -86 62 -249 350 -419 796 -462 1206 -17 164
-7 465 21 621 158 898 762 1608 1613 1897 130 45 233 70 396 99 125 23 156 24
386 21 174 -3 279 -9 344 -20z m812 -648 c4 -2 -3 -23 -15 -48 l-21 -45 -1152
-3 -1153 -2 -25 50 c-14 27 -25 51 -25 52 0 4 2382 -1 2391 -4z m112 -243 c64
-17 146 -55 195 -93 113 -86 177 -288 139 -437 -66 -254 -328 -395 -570 -305
-169 63 -255 307 -163 463 54 93 116 127 228 127 87 0 139 -21 185 -73 63 -72
67 -149 10 -214 -55 -62 -124 -79 -171 -42 -51 40 -29 96 47 113 60 14 12 96
-57 96 -41 0 -91 -32 -116 -72 -24 -39 -27 -122 -6 -171 56 -135 288 -150 401
-26 53 59 68 102 69 194 0 130 -53 219 -164 277 l-45 23 -1275 0 -1275 0 -47
-24 c-113 -56 -171 -147 -172 -271 -2 -192 146 -318 329 -280 97 20 156 90
159 185 2 87 -47 152 -124 162 -52 7 -103 -27 -98 -66 2 -21 9 -27 33 -29 40
-5 65 -29 65 -63 0 -32 -40 -69 -74 -69 -32 0 -107 41 -129 71 -40 56 -31 149
21 211 40 47 95 68 182 68 93 0 141 -21 196 -83 102 -115 97 -306 -10 -424
-70 -78 -224 -124 -346 -103 -216 36 -359 202 -360 415 0 168 83 311 228 392
117 66 28 62 1402 62 1082 1 1264 -1 1313 -14z m-498 -280 c-33 -50 -65 -151
-65 -207 l0 -48 -728 0 -728 0 -2 40 c-4 58 -37 159 -67 202 -14 20 -25 39
-25 43 0 3 369 5 819 5 l820 -1 -24 -34z m-378 -397 c-1 -6 10 -12 25 -13 15
-1 25 2 22 6 -2 4 -13 6 -24 4 -12 -2 -18 0 -15 5 3 5 21 9 40 8 22 -1 32 -5
28 -12 -5 -8 -3 -8 8 0 19 14 249 17 249 3 0 -5 9 -28 19 -49 l19 -40 -789 0
c-695 0 -788 2 -783 15 4 8 10 13 14 10 5 -3 12 0 16 6 4 8 3 9 -4 5 -15 -9
-15 3 1 37 l12 27 582 0 c437 0 582 -3 580 -12z m332 -207 c16 -10 8 -70 -11
-82 -7 -5 -341 -9 -742 -9 l-730 0 -23 22 c-25 23 -31 63 -10 71 21 9 1502 6
1516 -2z m-659 -216 c-3 -5 -16 -9 -29 -8 -13 1 -22 1 -20 0 2 -1 16 -13 31
-26 27 -23 27 -23 23 -3 -2 12 1 24 6 27 5 4 7 10 4 14 -2 5 128 8 290 8 l295
-1 0 -162 0 -162 -40 40 c-40 40 -50 56 -28 42 7 -4 8 -3 4 4 -4 6 -13 9 -20
6 -8 -3 -17 0 -22 7 -4 8 -3 10 4 5 18 -11 14 0 -5 15 -10 8 -14 9 -10 2 4 -6
4 -14 -1 -17 -8 -5 -48 53 -45 64 1 3 -6 7 -15 8 -9 1 -36 5 -60 8 -27 4 -55
1 -75 -7 -18 -8 -49 -14 -69 -14 -21 0 -38 -4 -38 -10 0 -11 19 -14 35 -6 28
15 33 7 13 -21 l-21 -31 -1 -696 -1 -696 -75 0 -75 0 -2 689 c-3 644 -4 691
-21 720 -60 103 -212 101 -264 -4 -17 -32 -18 -88 -18 -722 l0 -688 -80 0 -80
0 0 702 c0 773 4 727 -63 769 -45 29 -119 22 -155 -15 l-27 -26 -5 -713 -5
-712 -67 -3 -68 -3 0 794 c0 620 3 796 13 806 10 11 10 13 0 7 -8 -4 -13 -1
-13 7 0 13 55 15 403 14 264 -1 400 -5 397 -12z m504 -237 c4 4 6 0 4 -8 -1
-8 3 -14 10 -12 6 1 11 -1 10 -5 -3 -16 15 -43 25 -36 6 3 7 1 3 -5 -4 -6 4
-18 18 -27 24 -16 24 -18 25 -175 l2 -159 -46 44 c-41 41 -50 45 -46 22 1 -5
-3 -6 -9 -2 -5 3 -10 0 -10 -7 1 -16 47 -51 59 -44 4 3 7 -5 6 -17 -3 -31 -3
-31 -20 -17 -8 7 -15 10 -15 6 0 -3 0 -9 0 -13 0 -5 5 -9 10 -9 6 -1 13 -2 16
-3 4 0 0 -9 -7 -18 -12 -16 -12 -17 2 -6 9 7 20 9 25 5 4 -4 3 0 -4 9 -16 21
-5 31 19 16 17 -10 19 -24 18 -102 -1 -49 -4 -81 -6 -70 -7 26 -39 66 -46 58
-4 -3 -11 6 -16 21 -6 14 -13 26 -16 26 -4 0 -3 -5 1 -12 4 -6 -4 -3 -17 7
-15 11 -24 28 -24 46 -1 24 2 26 15 16 11 -9 11 -7 -2 8 -11 14 -16 33 -13 60
1 22 4 41 5 43 1 1 4 7 5 12 1 6 3 11 5 13 7 9 6 36 -1 31 -5 -3 -6 -11 -3
-17 4 -7 3 -8 -2 -4 -14 13 -13 339 1 327 7 -5 15 -6 19 -2z m-1018 -696 c-1
-636 -2 -677 -19 -680 -16 -3 -17 35 -17 676 0 373 3 681 6 685 3 3 11 4 18 1
10 -4 12 -159 12 -682z m442 0 l2 -683 -32 3 -33 3 -2 674 c-2 370 0 678 3
683 3 5 18 8 32 6 l27 -3 3 -683z m429 676 c4 -7 8 -316 8 -686 l1 -672 -24 3
-25 3 1 673 c1 369 4 676 7 681 8 14 22 12 32 -2z m828 -55 c111 -28 201 -77
279 -153 122 -118 160 -215 160 -410 0 -107 -3 -123 -38 -227 -48 -141 -108
-242 -204 -344 -144 -154 -317 -270 -471 -318 -60 -19 -61 -19 -61 0 0 37 -38
94 -84 127 l-47 34 2 109 c1 101 6 129 14 82 1 -10 9 -17 16 -15 8 2 11 0 6
-4 -10 -10 84 -105 96 -97 6 3 7 2 4 -4 -8 -13 57 -76 67 -66 4 5 6 1 4 -7 -2
-10 6 -16 27 -18 l30 -3 -25 24 c-14 14 -32 33 -41 43 -9 11 -58 59 -108 108
l-91 89 0 81 c0 77 1 82 22 83 18 2 19 0 8 -7 -12 -7 3 -27 73 -98 49 -49 93
-95 98 -103 5 -8 9 -10 9 -6 0 4 14 -8 31 -28 17 -19 36 -32 42 -28 5 3 7 2 4
-3 -9 -16 66 -84 82 -74 11 6 1 22 -44 69 -32 33 -62 58 -68 54 -5 -3 -7 -2
-4 4 8 13 -37 56 -48 46 -4 -5 -5 -3 -2 3 9 15 -38 58 -54 49 -8 -6 -10 -4 -4
4 5 9 -16 37 -61 82 -44 45 -71 65 -75 57 -4 -7 -8 87 -9 207 0 120 3 216 7
211 4 -4 8 -15 8 -24 0 -10 6 -16 15 -14 8 2 12 0 7 -4 -4 -4 3 -18 15 -31 15
-16 25 -20 34 -12 8 7 14 6 20 -2 4 -7 3 -9 -4 -5 -6 3 -13 2 -17 -4 -7 -11
132 -146 147 -142 5 1 7 -1 4 -6 -8 -13 291 -305 303 -298 6 4 9 1 6 -7 -3 -7
2 -20 12 -29 19 -17 53 -20 53 -6 0 10 -55 64 -100 100 -14 11 -18 16 -10 12
8 -4 -2 9 -23 29 -21 20 -77 73 -123 119 -69 67 -87 80 -95 68 -8 -12 -9 -11
-5 6 5 16 -14 40 -88 113 -60 58 -100 90 -107 85 -7 -4 -9 -3 -6 3 4 5 -7 23
-23 38 l-30 29 0 197 0 196 68 22 c122 40 275 45 397 14z m-2155 -396 l55 -12
2 -237 c1 -147 -2 -240 -8 -244 -11 -7 -41 15 -35 25 8 12 -143 163 -156 155
-6 -4 -8 -3 -5 3 4 6 -2 18 -13 28 -16 14 -23 16 -32 7 -9 -9 -4 -20 22 -47
19 -20 40 -33 48 -30 8 3 10 0 6 -6 -8 -14 96 -120 109 -112 6 3 7 2 4 -4 -4
-5 7 -23 24 -39 24 -23 29 -25 24 -9 -5 15 -4 16 3 6 5 -7 10 -96 10 -200 l1
-187 -49 -22 c-31 -14 -56 -35 -70 -57 -12 -19 -24 -35 -26 -35 -3 0 -2 5 2
11 8 14 -56 80 -69 72 -6 -3 -7 -2 -4 4 6 9 -396 418 -412 418 -5 0 -13 4 -18
9 -5 6 -2 6 7 1 8 -5 -9 16 -39 47 -35 36 -60 54 -69 50 -10 -3 -13 -1 -8 6 4
7 2 12 -4 12 -10 0 -6 -36 6 -49 7 -8 24 11 18 21 -4 7 -2 8 5 4 9 -6 9 -11 0
-22 -10 -13 2 -29 75 -100 48 -46 92 -82 97 -79 5 4 7 0 4 -7 -3 -7 8 -22 24
-33 16 -10 28 -23 25 -27 -3 -4 5 -12 16 -18 11 -6 20 -8 20 -4 0 3 6 1 14 -6
8 -6 13 -17 10 -25 -7 -18 14 -29 31 -15 10 8 15 8 21 -1 4 -7 3 -9 -4 -5 -6
3 -13 2 -17 -3 -6 -11 69 -91 86 -91 5 0 8 -4 5 -9 -6 -9 22 -26 37 -22 5 1 6
-3 2 -9 -7 -11 52 -73 64 -66 3 2 15 -2 26 -10 10 -8 14 -14 9 -14 -6 0 -15 5
-22 12 -7 7 -12 8 -12 4 0 -5 15 -23 34 -40 l33 -32 -3 -95 c-2 -52 -3 -97 -4
-100 0 -4 -14 -9 -31 -13 -17 -3 -49 -24 -72 -46 -38 -39 -44 -41 -116 -46
-220 -16 -454 112 -546 299 -86 175 -85 417 2 592 91 182 270 340 465 411 110
40 288 54 398 31z m1456 -75 c-3 -5 8 -19 25 -31 23 -17 28 -26 19 -36 -8 -9
-8 -15 0 -20 6 -3 8 -10 5 -15 -3 -4 3 -14 13 -21 15 -13 16 -12 3 4 -11 14
-11 17 0 17 8 0 6 6 -7 16 -18 15 -17 15 6 1 14 -8 25 -19 25 -25 0 -6 4 -14
9 -19 5 -5 6 -3 2 5 -4 6 -2 12 3 12 7 0 11 -29 11 -75 l0 -74 -25 25 c-22 22
-28 24 -43 12 -15 -11 -15 -11 -5 3 10 12 10 19 -2 36 -12 17 -12 20 0 20 8 0
11 -5 8 -11 -3 -6 -3 -8 2 -4 4 4 14 3 21 -3 17 -14 13 13 -5 35 -12 14 -16
15 -30 3 -9 -8 -23 -14 -32 -14 -13 0 -15 13 -14 81 2 87 2 86 11 86 3 0 3 -4
0 -8z m1283 -180 c1 -13 -3 -20 -9 -17 -5 3 -9 32 -9 63 1 57 1 57 10 17 4
-22 8 -50 8 -63z m-1218 21 c12 -16 12 -17 -2 -6 -9 7 -20 9 -24 5 -5 -4 -5
-1 -1 6 9 16 11 15 27 -5z m-56 -33 c-3 -5 -1 -11 5 -15 5 -3 10 -11 10 -16 0
-6 -4 -8 -8 -5 -5 3 -9 -1 -9 -9 0 -10 4 -12 12 -5 18 15 65 -32 60 -59 -2
-12 0 -19 6 -16 5 4 7 10 5 14 -3 4 1 8 9 8 11 0 13 -34 14 -176 1 -128 -2
-171 -10 -158 -6 10 -15 14 -22 10 -8 -4 -8 -1 1 9 13 16 27 66 15 54 -11 -11
-82 65 -76 81 5 11 9 11 27 -4 l21 -18 -20 24 c-11 13 -19 26 -17 29 1 3 -4 7
-12 8 -10 1 -13 -5 -10 -19 2 -11 -2 -27 -9 -36 -10 -12 -9 -13 1 -7 8 5 11 3
10 -5 -2 -7 3 -13 10 -14 6 0 11 -3 10 -6 -2 -4 5 -16 15 -27 11 -12 16 -26
12 -33 -6 -8 -10 -7 -17 5 -5 9 -14 14 -19 10 -5 -3 -8 -2 -7 3 1 4 -4 19 -11
33 -17 31 -25 140 -11 140 6 0 8 6 4 13 -4 6 2 4 14 -7 12 -10 20 -22 17 -26
-2 -3 8 -19 23 -35 15 -16 27 -33 27 -37 0 -5 5 -9 10 -10 6 -2 11 11 13 28 2
25 -1 33 -20 39 -13 4 -27 6 -32 6 -5 -1 -3 5 4 14 12 14 15 14 30 0 14 -13
17 -13 17 0 0 8 -4 12 -8 9 -4 -2 -10 0 -14 5 -3 6 -12 8 -19 5 -7 -3 -19 2
-26 11 -7 8 -18 15 -25 15 -18 0 -21 15 -23 98 -2 76 2 97 19 86 5 -3 7 -9 4
-14z m1275 -162 c0 -26 -2 -48 -4 -48 -2 0 -17 12 -33 26 -28 24 -29 28 -20
70 l10 44 24 -22 c18 -17 23 -32 23 -70z m-2786 16 c3 -8 2 -12 -4 -9 -6 3
-10 10 -10 16 0 14 7 11 14 -7z m2728 -121 c28 -27 41 -81 16 -67 -10 5 -10 4
-1 -6 8 -9 9 -19 1 -36 -6 -13 -14 -24 -18 -24 -3 0 -21 15 -39 34 l-33 34 17
46 c10 25 20 46 23 46 3 0 19 -12 34 -27z m-1139 -129 c-3 -8 -10 -11 -16 -7
-8 5 -7 8 2 11 9 3 6 12 -11 31 l-23 26 27 -24 c15 -13 24 -29 21 -37z m-63
-8 c14 -19 28 -32 32 -30 4 3 5 -4 3 -16 -2 -11 1 -19 8 -17 7 1 11 -4 10 -10
-4 -17 2 -16 20 2 14 13 15 5 14 -70 -1 -49 -6 -85 -12 -85 -5 0 -10 6 -10 13
-1 6 -7 11 -14 9 -7 -1 -10 2 -7 7 7 11 -53 43 -66 35 -12 -7 9 -32 45 -54
l28 -18 -45 2 -46 1 3 66 c1 37 6 65 11 62 5 -4 5 0 0 8 -10 16 -15 129 -6
129 4 0 18 -16 32 -34z m1134 -35 l38 -39 -27 -42 -27 -43 -45 46 -46 45 28
36 c15 20 30 36 34 36 4 0 24 -17 45 -39z m-99 -220 l-34 -35 -25 23 c-14 13
-23 28 -20 33 3 5 0 7 -6 6 -7 -2 -17 4 -23 14 -8 13 -5 23 19 51 l29 34 48
-46 47 -45 -35 -35z m-131 -46 l37 -45 -35 -30 c-19 -17 -38 -31 -41 -31 -7 0
-75 87 -75 96 0 10 54 54 66 55 7 0 28 -20 48 -45z m-959 -74 c-1 -16 -7 -25
-15 -23 -10 2 -11 0 -2 -11 7 -8 9 -18 5 -23 -4 -5 -2 -4 6 3 7 6 20 9 28 6
11 -5 11 -9 -3 -24 -9 -11 -13 -19 -9 -19 4 0 0 -9 -10 -20 -10 -11 -15 -20
-10 -20 4 0 2 -7 -5 -15 -7 -8 -16 -13 -20 -10 -5 3 -12 1 -15 -5 -5 -8 -11
-8 -20 0 -9 8 -15 8 -20 0 -4 -6 -3 -10 2 -9 4 1 10 0 13 -1 23 -10 62 -4 76
11 17 18 34 17 34 -2 0 -6 -4 -8 -9 -4 -5 3 -12 1 -15 -4 -4 -5 1 -8 9 -7 21
3 28 13 19 28 -15 23 -11 57 8 74 10 10 18 12 18 6 0 -6 -4 -13 -9 -16 -10 -6
-9 -24 0 -41 4 -5 5 -17 4 -27 -2 -12 4 -15 21 -13 13 1 24 -1 24 -5 0 -3 17
-6 38 -5 24 1 36 6 34 14 -1 7 3 11 10 8 7 -2 12 -9 11 -14 -1 -5 8 -10 20
-10 17 -2 19 0 7 7 -8 5 -11 10 -6 10 5 0 5 6 0 13 -8 11 -9 20 -5 52 1 6 6 3
11 -5 8 -13 10 -12 10 3 0 9 -4 18 -10 18 -20 3 -25 4 -37 12 -7 4 -10 1 -8
-10 3 -24 -6 -38 -15 -22 -5 7 -7 -4 -7 -26 2 -29 -2 -39 -15 -41 -18 -2 -24
7 -11 20 4 4 8 18 9 31 1 18 -2 22 -10 16 -16 -13 -34 0 -30 22 2 15 0 16 -14
5 -13 -11 -15 -11 -9 4 3 10 3 17 -1 17 -23 -4 -23 4 2 30 20 21 24 31 15 36
-7 5 -10 4 -5 -3 4 -7 -1 -10 -14 -7 -19 4 -35 -9 -35 -29 0 -5 -5 -11 -12
-13 -12 -4 -12 14 1 35 4 7 3 11 -2 10 -6 -2 -12 1 -14 6 -2 8 105 11 204 6
37 -2 51 -36 52 -125 1 -64 -2 -85 -12 -85 -8 0 -10 5 -6 13 6 10 4 10 -7 0
-10 -10 -189 -13 -826 -13 l-813 0 0 81 c0 87 9 116 43 129 12 4 322 8 688 7
l666 0 -2 -26z m820 -28 c16 -27 31 -51 33 -54 3 -7 -85 -55 -91 -49 -3 3 -16
27 -30 55 l-25 50 37 22 c20 12 38 23 41 23 3 0 19 -21 35 -47z m-755 2 c-11
-12 -18 -24 -15 -27 3 -2 -5 -13 -17 -24 l-23 -19 19 23 c11 12 16 22 12 22
-4 0 -4 6 1 13 4 6 8 15 9 20 3 13 4 14 19 14 12 0 11 -5 -5 -22z m608 -87
c12 -28 20 -53 17 -56 -2 -3 -28 -13 -57 -23 l-52 -17 -17 51 c-10 29 -17 52
-16 52 1 0 22 10 47 22 25 12 47 22 50 22 3 0 15 -23 28 -51z m-584 21 c-5
-10 31 -31 39 -23 8 8 3 -19 -7 -34 -6 -11 -11 -11 -24 0 -13 11 -14 11 -8 -1
6 -9 4 -12 -5 -9 -8 3 -15 10 -15 16 -1 7 -3 14 -4 17 -12 23 -5 42 14 42 8 0
13 -4 10 -8z m118 -3 c-12 -19 -11 -40 1 -56 10 -13 10 -13 -5 -2 -9 8 -21 11
-27 8 -13 -8 -8 19 7 36 6 8 10 17 7 20 -3 2 2 5 10 5 8 0 11 -5 7 -11z m-185
-21 c0 -8 -12 -25 -26 -37 l-26 -23 19 23 c11 12 16 22 11 22 -4 0 -2 7 5 15
15 19 17 19 17 0z m471 -60 c5 -16 13 -39 18 -49 7 -19 6 -19 -23 2 -17 12
-45 25 -62 28 -41 8 -43 41 -3 50 15 3 32 7 37 9 14 4 20 -5 33 -40z m451 -50
c6 -3 11 -2 11 2 0 5 15 7 33 6 58 -3 91 -3 145 -1 30 2 51 -1 49 -7 -2 -5
-18 -10 -35 -11 -21 -1 -29 3 -25 10 5 8 3 8 -8 0 -8 -6 -24 -10 -36 -9 -12 1
-19 -3 -16 -8 4 -6 1 -7 -8 -1 -22 14 -96 12 -96 -3 0 -8 4 -9 12 -3 7 6 19 4
35 -7 13 -9 20 -12 17 -6 -5 8 6 10 33 8 28 -2 38 0 33 8 -4 7 2 5 12 -3 15
-12 17 -12 10 -1 -6 10 -4 12 4 6 24 -14 -8 -29 -68 -30 -33 -1 -59 2 -58 6 1
4 -2 7 -8 7 -5 0 -9 -3 -8 -6 1 -4 -48 -7 -107 -8 l-109 0 59 26 c33 15 62 29
65 32 7 7 50 2 64 -7z m282 5 c27 15 24 1 -8 -32 -32 -34 -89 -40 -89 -10 0
14 7 18 24 16 14 -1 28 5 35 17 7 11 13 15 15 9 2 -6 10 -6 23 0z m-3536 -17
c-3 -23 4 -35 16 -27 6 4 6 11 -1 19 -7 9 -8 15 -1 20 11 6 81 -44 81 -57 0
-12 -18 -10 -25 2 -5 8 -11 7 -21 -1 -17 -14 -57 8 -74 41 -9 17 -8 20 9 20
13 0 18 -6 16 -17z m2725 -95 c22 -18 24 -27 26 -113 l2 -93 -1010 -1 -1010
-2 4 95 c2 75 7 98 22 115 l20 21 960 -1 c946 -1 961 -1 986 -21z m-2565 -42
c0 -11 5 -21 12 -23 7 -3 11 3 8 15 -3 18 1 20 39 17 23 -2 55 -10 72 -16 16
-7 35 -11 43 -10 7 1 11 -4 9 -11 -5 -13 -22 -14 -65 -4 -13 3 -23 2 -23 -2 0
-7 -45 -8 -60 -2 -3 1 -14 2 -25 1 -11 0 -35 12 -54 27 l-34 29 39 -1 c31 -1
39 -5 39 -20z m3075 14 c0 -5 -5 -12 -10 -15 -7 -5 -8 -11 -1 -19 8 -9 -12
-12 -83 -12 -87 -1 -93 1 -92 19 1 11 -4 22 -10 24 -7 2 -11 -6 -10 -19 1 -21
-4 -23 -48 -24 -48 -1 -49 0 -28 16 22 18 19 30 -7 30 -13 0 -13 -2 -2 -9 9
-6 10 -11 2 -15 -6 -4 -14 0 -17 8 -3 9 -10 16 -14 16 -10 0 -8 -20 4 -38 7
-11 4 -11 -13 -1 -14 10 -17 15 -8 21 9 6 9 8 0 8 -7 0 -13 4 -13 9 0 4 79 9
175 9 96 0 175 -4 175 -8z m190 1 c0 -4 -8 -16 -19 -25 -22 -20 -71 -31 -71
-16 0 7 -5 8 -12 3 -18 -11 -39 -13 -33 -3 7 12 -13 23 -26 14 -8 -4 -7 -9 2
-16 12 -8 11 -9 -1 -6 -8 3 -15 16 -15 30 -2 25 -2 25 87 26 48 1 88 -2 88 -7z
m-3020 -47 c0 -2 -11 -4 -25 -4 -14 0 -25 4 -25 9 0 4 11 6 25 3 14 -2 25 -6
25 -8z m208 -108 l2 -33 -155 -1 c-85 0 -158 4 -161 9 -3 5 -9 7 -13 5 -4 -3
-20 8 -36 24 l-28 29 195 1 194 0 2 -34z m2452 24 c0 -5 -5 -12 -12 -16 -6 -4
-9 -3 -5 2 3 5 -12 9 -33 9 -21 0 -36 -3 -34 -7 8 -13 -11 -9 -25 5 -11 10
-12 9 -3 -8 5 -10 22 -20 36 -21 14 0 23 3 20 8 -3 4 0 8 5 8 6 0 11 -6 11
-12 0 -9 3 -9 8 -3 8 12 22 13 39 2 6 -4 14 -3 18 3 3 5 11 10 16 10 6 0 8 -4
5 -8 -3 -5 5 -8 17 -7 12 2 21 8 19 14 -1 7 2 10 7 7 5 -4 12 -3 14 2 3 4 -12
7 -34 7 -21 0 -39 -3 -39 -8 0 -4 -4 -5 -10 -2 -30 18 0 25 100 23 l111 -2
-33 -25 c-36 -29 -73 -37 -84 -20 -4 7 -3 9 4 5 6 -3 14 -2 17 4 5 8 11 8 19
1 9 -8 13 -7 13 4 0 8 -5 11 -10 8 -6 -4 -7 -1 -2 8 8 12 6 12 -8 0 -13 -10
-17 -11 -17 -1 0 9 -6 7 -20 -5 -11 -10 -17 -21 -15 -25 3 -4 -41 -7 -96 -6
-83 1 -103 4 -113 18 -7 10 -16 15 -19 11 -4 -3 -1 -13 6 -22 10 -14 10 -14
-5 -3 -13 10 -17 10 -22 0 -3 -7 -3 -1 -1 15 2 15 -1 27 -6 27 -5 0 -10 -12
-10 -27 -1 -18 -3 -22 -6 -10 -10 38 2 44 91 45 47 0 86 -4 86 -8z m-2585
-131 c3 -3 26 -4 51 -2 29 3 44 1 40 -6 -11 -17 11 -21 25 -4 10 12 10 14 2 9
-8 -4 -13 -2 -13 4 0 21 25 4 28 -18 4 -25 -36 -24 700 -22 309 1 397 -2 410
-12 10 -8 13 -8 9 -1 -5 8 135 11 574 12 522 1 580 -1 568 -15 -7 -8 -8 -14
-3 -13 5 1 11 0 14 -1 3 -1 13 -3 23 -5 17 -3 17 -2 3 14 -9 10 -13 21 -9 26
5 4 3 5 -3 2 -16 -9 -26 20 -11 30 15 9 192 15 183 5 -4 -4 -20 -7 -34 -7 -15
0 -27 -4 -27 -10 0 -5 -4 -15 -8 -22 -4 -7 -1 -10 10 -9 10 2 18 9 18 17 0 8
8 13 16 11 9 -1 22 5 29 13 7 8 22 15 34 14 20 0 20 -1 3 -12 -11 -7 -45 -29
-77 -49 l-59 -38 -1068 -1 c-1390 -1 -1382 -1 -1393 6 -6 4 -8 10 -5 15 3 5 0
12 -6 16 -8 4 -9 3 -5 -4 4 -7 5 -12 1 -12 -10 0 -80 47 -92 62 -10 12 -6 14
27 13 22 0 42 -3 45 -6z m230 -168 c-3 -5 -1 -13 5 -16 6 -4 9 -1 8 7 -2 11
71 14 395 16 296 2 397 0 395 -9 -2 -6 3 -13 10 -15 7 -1 8 0 2 3 -5 2 -8 9
-5 13 5 9 1325 14 1325 6 0 -2 -12 -11 -26 -21 -17 -11 -23 -12 -18 -4 4 8 -4
4 -19 -7 -14 -12 -52 -32 -84 -44 -32 -13 -64 -28 -72 -34 -12 -9 -13 -8 -7 3
6 8 0 7 -18 -4 -14 -10 -26 -14 -26 -10 0 4 -7 2 -15 -5 -18 -15 -20 1 -3 18
7 7 8 12 4 12 -5 0 -3 7 4 15 11 13 -79 15 -743 15 l-754 0 1 -32 1 -32 153 0
c83 0 152 -3 152 -7 0 -3 -7 -12 -15 -19 -18 -15 -9 -29 25 -35 12 -2 19 -1
16 3 -7 7 -11 8 -37 11 -8 1 -8 5 1 16 7 8 16 12 21 9 5 -3 8 0 7 7 -2 10 28
13 132 13 110 0 134 -2 132 -14 -3 -11 0 -11 14 1 13 10 53 14 161 15 79 1
146 -3 149 -8 3 -4 11 -5 17 -1 16 11 537 12 531 1 -3 -4 -13 -8 -23 -8 -10 0
-21 -3 -25 -7 -4 -4 -35 -15 -69 -25 -44 -12 -65 -14 -72 -6 -7 8 -6 9 4 3 10
-6 12 -4 7 4 -6 9 -11 9 -22 0 -17 -14 -19 -23 -2 -13 6 4 8 3 4 -4 -3 -5 -25
-14 -49 -18 -23 -4 -44 -8 -47 -9 -3 -1 -27 -5 -55 -10 -27 -4 -59 -9 -70 -11
-70 -14 -169 -24 -296 -29 -174 -8 -399 12 -555 51 -56 14 -108 26 -115 28
-25 4 -194 59 -204 66 -5 4 -28 13 -50 20 -42 13 -189 81 -215 99 -12 9 -9 11
13 11 16 0 26 -4 22 -9z"/>
<path d="M5374 6277 c-46 -24 -60 -89 -26 -120 25 -23 78 -21 102 3 54 54 -10
152 -76 117z"/>
<path d="M4530 6262 c-17 -13 -23 -29 -22 -53 2 -92 142 -91 142 1 0 61 -71
91 -120 52z"/>
<path d="M4791 6254 c-12 -15 -21 -34 -21 -44 0 -33 39 -70 74 -70 66 0 99 75
53 118 -33 31 -80 29 -106 -4z"/>
<path d="M5077 6262 c-25 -28 -22 -87 5 -106 49 -34 118 -1 118 55 0 56 -87
91 -123 51z"/>
<path d="M5616 6258 c-23 -32 -20 -71 7 -96 47 -44 121 -15 119 47 -1 46 -27
71 -73 71 -28 0 -42 -6 -53 -22z"/>
<path d="M5695 5921 c2 -9 4 -18 4 -20 1 -2 8 2 16 9 16 14 13 23 -9 26 -8 1
-13 -5 -11 -15z"/>
<path d="M5855 5930 c-4 -6 -10 -8 -15 -5 -22 14 -16 -15 8 -36 14 -13 21 -17
14 -8 -6 9 -9 19 -5 23 7 7 14 36 8 36 -2 0 -7 -5 -10 -10z m5 -16 c0 -8 -19
-13 -24 -6 -3 5 1 9 9 9 8 0 15 -2 15 -3z"/>
<path d="M5771 5916 c-7 -8 -8 -17 -3 -20 6 -3 15 1 21 8 7 8 8 17 3 20 -6 3
-15 -1 -21 -8z"/>
<path d="M5663 5908 c-12 -20 -12 -35 1 -35 7 0 12 11 12 24 0 26 -2 28 -13
11z"/>
<path d="M5609 5883 c-13 -16 -12 -17 4 -4 9 7 17 15 17 17 0 8 -8 3 -21 -13z"/>
<path d="M5533 5705 c0 -8 4 -12 9 -9 5 3 6 10 3 15 -9 13 -12 11 -12 -6z"/>
<path d="M5668 5706 c4 -6 7 -14 7 -18 0 -19 11 -14 11 6 0 12 -6 23 -13 23
-6 0 -9 -5 -5 -11z"/>
<path d="M5703 5705 c0 -8 4 -12 9 -9 5 3 6 10 3 15 -9 13 -12 11 -12 -6z"/>
<path d="M5734 5703 c2 -10 6 -17 10 -16 15 3 16 11 2 22 -12 10 -14 9 -12 -6z"/>
<path d="M5625 5702 c3 -3 0 -11 -5 -17 -7 -9 -6 -16 5 -25 8 -7 15 -11 16 -9
7 27 3 56 -8 56 -7 0 -11 -3 -8 -5z m12 -27 c0 -8 -4 -12 -9 -9 -5 3 -6 10 -3
15 9 13 12 11 12 -6z"/>
<path d="M5582 5690 c2 -9 -3 -14 -12 -12 -8 2 -11 0 -7 -4 4 -4 14 -9 21 -10
14 -2 16 20 2 33 -4 4 -6 1 -4 -7z"/>
<path d="M4405 5670 c10 -11 20 -20 23 -20 3 0 -3 9 -13 20 -10 11 -20 20 -23
20 -3 0 3 -9 13 -20z"/>
<path d="M4469 5516 c-1 -3 -2 -11 -3 -17 0 -6 -10 -17 -20 -25 -11 -8 -14
-14 -8 -14 7 0 11 -4 10 -9 -2 -5 0 -9 5 -10 4 -1 7 2 8 7 0 4 9 16 20 28 17
19 18 22 4 34 -8 7 -16 10 -16 6z m15 -15 c3 -4 -4 -17 -17 -27 -22 -19 -22
-19 -4 2 9 11 14 24 10 27 -3 4 -4 7 0 7 3 0 8 -4 11 -9z"/>
<path d="M4851 5511 c-10 -6 -9 -10 3 -14 8 -3 18 -2 21 3 8 13 -9 20 -24 11z"/>
<path d="M4897 5507 c4 -7 8 -15 9 -19 1 -5 2 -11 3 -14 0 -4 8 -1 16 6 11 9
13 16 6 23 -15 15 -43 18 -34 4z m28 -6 c3 -5 2 -12 -3 -15 -5 -3 -9 1 -9 9 0
17 3 19 12 6z"/>
<path d="M4959 5516 c-8 -9 -4 -38 7 -47 16 -13 15 -14 18 22 2 16 -2 26 -11
26 -7 0 -13 -1 -14 -1z m17 -32 c1 -9 0 -13 -4 -10 -3 4 -7 14 -8 22 -1 9 0
13 4 10 3 -4 7 -14 8 -22z"/>
<path d="M5249 5504 c-6 -8 -7 -14 0 -18 5 -4 8 -14 6 -24 -2 -13 3 -18 21
-18 14 0 20 4 15 11 -4 5 -7 22 -6 36 2 28 -18 35 -36 13z m27 -29 c0 -13 -3
-22 -8 -19 -4 3 -6 9 -3 14 3 5 1 11 -5 15 -6 4 -8 11 -4 16 9 15 18 2 20 -26z"/>
<path d="M5466 5512 c-3 -5 1 -9 9 -9 8 0 12 4 9 9 -3 4 -7 8 -9 8 -2 0 -6 -4
-9 -8z"/>
<path d="M4530 5496 c8 -11 15 -27 15 -38 0 -32 20 -14 20 19 1 23 -2 30 -10
23 -7 -6 -16 -5 -25 3 -10 9 -10 7 0 -7z"/>
<path d="M4591 5496 c-9 -10 -7 -17 6 -27 16 -12 17 -12 6 2 -10 12 -10 18 -1
27 7 7 9 12 6 12 -3 0 -11 -6 -17 -14z"/>
<path d="M4626 5501 c-5 -13 0 -31 9 -31 6 0 10 3 10 8 0 4 3 12 7 18 4 6 0
11 -8 11 -8 0 -16 -3 -18 -6z"/>
<path d="M4670 5495 c-7 -8 -9 -15 -5 -15 4 0 2 -7 -5 -15 -7 -8 -11 -15 -9
-16 2 0 19 -2 38 -4 32 -3 32 -3 13 11 -13 9 -19 22 -17 34 5 24 2 25 -15 5z
m14 -33 c3 -5 -1 -9 -9 -9 -8 0 -12 4 -9 9 3 4 7 8 9 8 2 0 6 -4 9 -8z"/>
<path d="M5034 5498 c-13 -20 -13 -37 -1 -45 18 -11 38 -12 31 -2 -6 11 9 12
20 2 3 -4 12 -8 20 -9 14 -2 16 39 3 52 -11 11 -38 14 -31 3 7 -13 -10 -11
-23 2 -8 8 -13 7 -19 -3z m51 -8 c8 7 16 10 16 6 8 -38 2 -51 -17 -35 -11 9
-17 9 -29 -1 -8 -7 -16 -10 -16 -6 -8 38 -2 51 17 35 11 -9 17 -9 29 1z"/>
<path d="M5043 5475 c0 -8 4 -12 9 -9 5 3 6 10 3 15 -9 13 -12 11 -12 -6z"/>
<path d="M5139 5509 c-12 -52 7 -92 31 -64 11 13 11 16 0 13 -9 -2 -14 6 -15
19 0 18 -13 44 -16 32z"/>
<path d="M5392 5493 c14 -18 20 -43 8 -43 -13 0 -30 26 -22 36 4 4 0 3 -10 -4
-9 -7 -15 -21 -14 -30 3 -17 16 -19 69 -7 22 4 27 3 21 -7 -6 -10 -5 -11 8 -1
8 7 19 9 24 5 4 -4 3 0 -4 9 -6 9 -9 19 -6 22 4 3 -6 4 -21 1 -16 -3 -24 -1
-21 5 7 10 -10 24 -32 27 -11 2 -11 -1 0 -13z m-13 -36 c8 -10 7 -14 -2 -14
-8 0 -14 6 -14 14 0 7 1 13 2 13 2 0 8 -6 14 -13z"/>
<path d="M5501 5496 c-10 -11 -9 -14 1 -12 14 2 23 15 15 22 -2 2 -10 -2 -16
-10z"/>
<path d="M5545 5490 c2 -11 -2 -20 -8 -20 -8 0 -8 -3 1 -9 8 -4 13 -11 13 -15
-2 -16 0 -18 12 -7 8 6 16 9 19 6 3 -3 4 7 3 22 0 16 -5 28 -11 28 -5 0 -14 4
-21 8 -8 5 -11 1 -8 -13z m31 -17 c-4 -26 -22 -34 -22 -10 0 13 5 24 12 24 6
0 11 -6 10 -14z"/>
<path d="M5633 5496 c1 -6 -5 -10 -13 -11 -8 0 -15 -9 -15 -20 0 -11 -4 -27
-10 -35 -8 -13 -6 -13 8 -2 9 8 16 17 15 20 -2 20 4 23 18 11 19 -16 47 -21
38 -7 -3 5 2 8 12 6 12 -2 18 2 16 10 -1 8 2 11 7 8 5 -3 8 -14 7 -23 -2 -10
3 -24 11 -31 7 -8 11 -17 9 -21 -3 -4 1 -8 9 -8 12 0 12 3 3 16 -7 9 -1 6 13
-7 14 -12 29 -19 34 -15 4 5 4 1 -1 -7 -13 -23 -13 -37 0 -37 15 0 20 58 7 67
-6 3 -13 17 -15 30 -2 14 -5 26 -7 28 -1 1 -2 6 -3 11 0 5 -5 13 -9 17 -11 11
-38 14 -32 4 9 -14 -15 -23 -29 -11 -7 6 -16 8 -19 4 -4 -3 -7 -2 -7 3 0 6
-11 10 -24 10 -14 0 -24 -5 -23 -10z m59 -11 c3 3 5 -1 5 -9 0 -8 -6 -12 -13
-9 -6 2 -15 -1 -19 -7 -5 -8 -11 -8 -21 1 -21 17 1 42 26 29 9 -5 19 -7 22 -5z
m74 -6 c1 -5 2 -10 3 -11 2 -2 4 -14 7 -28 3 -19 2 -21 -6 -10 -5 8 -10 11
-10 6 0 -5 -6 -3 -14 3 -15 13 -16 28 -2 49 8 13 20 9 22 -9z"/>
<path d="M5646 5481 c-4 -5 -2 -12 3 -15 5 -4 12 -2 15 3 4 5 2 12 -3 15 -5 4
-12 2 -15 -3z"/>
<path d="M5749 5488 c-10 -32 2 -61 15 -39 4 5 2 12 -4 16 -6 4 -8 11 -5 16 4
5 4 9 1 9 -3 0 -6 -1 -7 -2z"/>
<path d="M4509 5488 c-1 -2 -2 -15 -3 -30 -2 -23 0 -26 11 -17 9 8 10 15 3 24
-5 6 -7 15 -3 18 3 4 3 7 0 7 -4 0 -7 -1 -8 -2z"/>
<path d="M4820 5475 c-7 -8 -17 -12 -24 -8 -6 3 -6 1 1 -7 17 -18 48 -23 34
-6 -7 9 -7 16 1 24 7 7 9 12 6 12 -3 0 -11 -7 -18 -15z"/>
<path d="M5186 5469 c10 -12 18 -24 16 -27 -1 -3 5 -7 14 -8 12 -2 8 6 -12 27
-32 33 -47 40 -18 8z"/>
<path d="M5303 5475 c0 -8 8 -22 17 -30 14 -13 16 -12 16 10 0 13 -2 22 -5 20
-2 -3 -9 0 -16 5 -8 7 -12 5 -12 -5z"/>
<path d="M4854 5462 c3 -17 33 -25 42 -11 3 5 0 8 -8 7 -7 -2 -12 2 -11 8 1 6
-4 11 -11 11 -8 0 -13 -7 -12 -15z"/>
<path d="M4746 5452 c-3 -5 1 -9 9 -9 8 0 12 4 9 9 -3 4 -7 8 -9 8 -2 0 -6 -4
-9 -8z"/>
<path d="M4966 5438 c3 -5 10 -6 15 -3 13 9 11 12 -6 12 -8 0 -12 -4 -9 -9z"/>
<path d="M5484 5413 c2 -10 6 -17 10 -16 15 3 16 11 2 22 -12 10 -14 9 -12 -6z"/>
<path d="M5310 5416 c0 -2 8 -10 18 -17 15 -13 16 -12 3 4 -13 16 -21 21 -21
13z"/>
<path d="M5695 5410 c-4 -6 -12 -7 -18 -3 -8 5 -8 2 0 -9 7 -8 9 -18 5 -22 -4
-4 0 -6 8 -4 8 2 14 -3 15 -11 0 -8 8 -15 19 -17 17 -2 16 -1 -3 20 -15 16
-18 25 -10 33 7 7 7 13 1 17 -6 3 -13 2 -17 -4z"/>
<path d="M5390 5406 c0 -2 8 -10 18 -17 15 -13 16 -12 3 4 -13 16 -21 21 -21
13z"/>
<path d="M5259 5383 c-13 -16 -12 -17 4 -4 9 7 17 15 17 17 0 8 -8 3 -21 -13z"/>
<path d="M5273 5334 c0 -7 5 -12 11 -11 6 1 10 -4 8 -11 -1 -8 2 -11 8 -7 6 4
9 10 6 13 -3 3 -2 10 4 17 6 8 2 11 -14 11 -12 0 -23 -6 -23 -12z"/>
<path d="M5339 5329 c-10 -42 1 -83 16 -59 4 6 10 8 14 6 16 -10 7 25 -11 41
-10 9 -18 14 -19 12z m20 -23 c8 -10 8 -16 -2 -24 -10 -9 -13 -6 -13 13 0 29
0 29 15 11z"/>
<path d="M5296 5098 c3 -5 10 -6 15 -3 13 9 11 12 -6 12 -8 0 -12 -4 -9 -9z"/>
<path d="M5353 4975 c0 -8 4 -12 9 -9 5 3 6 10 3 15 -9 13 -12 11 -12 -6z"/>
<path d="M5383 4936 c1 -5 -4 -11 -10 -12 -7 -1 -16 -3 -20 -4 -5 -1 -11 -2
-14 -2 -3 1 -6 -6 -6 -14 0 -11 4 -11 19 3 17 15 23 11 18 -12 -1 -5 2 -6 7
-2 4 5 8 14 8 20 1 7 6 11 11 10 6 -1 11 4 11 11 0 7 -6 13 -13 13 -7 0 -12
-5 -11 -11z"/>
<path d="M5340 4856 c0 -2 8 -10 18 -17 15 -13 16 -12 3 4 -13 16 -21 21 -21
13z"/>
<path d="M5335 4801 c-3 -5 -1 -12 5 -16 6 -4 8 -10 5 -15 -3 -5 -1 -11 4 -14
16 -11 22 11 6 24 -8 7 -12 16 -9 21 3 5 3 9 0 9 -3 0 -7 -4 -11 -9z"/>
<path d="M5336 4711 c-3 -4 6 -7 19 -7 14 0 22 2 19 5 -8 8 -34 10 -38 2z"/>
<path d="M5353 4678 c-13 -23 -11 -36 8 -54 10 -9 19 -15 20 -13 0 2 2 12 4
21 2 9 -3 22 -11 29 -8 6 -11 15 -8 20 3 5 3 9 0 9 -3 0 -8 -6 -13 -12z m23
-44 c2 -12 0 -14 -9 -5 -6 6 -12 18 -13 27 -2 12 0 14 9 5 6 -6 12 -18 13 -27z"/>
<path d="M5285 4659 c-3 -3 2 -12 10 -19 8 -7 15 -11 16 -9 6 30 5 36 -8 36
-7 0 -16 -4 -18 -8z"/>
<path d="M5334 4574 c2 -11 -2 -22 -8 -26 -6 -4 -1 -6 10 -6 23 2 26 20 7 39
-9 9 -11 7 -9 -7z"/>
<path d="M5399 4588 c-5 -18 -6 -38 -1 -34 7 8 12 36 6 36 -2 0 -4 -1 -5 -2z"/>
<path d="M5316 4522 c-3 -6 1 -15 8 -21 8 -7 17 -8 20 -3 3 6 -1 15 -8 21 -8
7 -17 8 -20 3z"/>
<path d="M5395 4511 c-3 -5 -2 -12 3 -15 5 -3 9 1 9 9 0 17 -3 19 -12 6z"/>
<path d="M5375 4460 c-4 -6 -12 -7 -18 -4 -7 4 -8 3 -4 -2 5 -5 14 -9 20 -9 7
-1 11 -7 9 -14 -1 -7 2 -10 8 -6 8 5 8 11 1 19 -6 7 -8 16 -4 19 3 4 4 7 0 7
-3 0 -9 -5 -12 -10z"/>
<path d="M5334 4443 c3 -6 1 -15 -4 -18 -8 -5 -6 -13 4 -24 9 -10 14 -20 11
-23 -3 -2 1 -5 9 -5 17 0 15 19 -4 43 -8 9 -13 19 -12 21 2 3 0 8 -4 11 -4 4
-4 2 0 -5z m17 -40 c13 -16 12 -17 -3 -4 -10 7 -18 15 -18 17 0 8 8 3 21 -13z"/>
<path d="M5305 4380 c10 -11 20 -20 23 -20 3 0 -3 9 -13 20 -10 11 -20 20 -23
20 -3 0 3 -9 13 -20z"/>
<path d="M5323 4314 c0 -8 3 -12 5 -9 3 3 11 0 18 -6 8 -6 14 -6 18 0 4 5 1
13 -6 18 -21 13 -35 12 -35 -3z"/>
<path d="M5343 4265 c0 -8 4 -12 9 -9 5 3 6 10 3 15 -9 13 -12 11 -12 -6z"/>
<path d="M5391 4234 c6 -7 16 -11 21 -8 11 7 3 17 -18 20 -12 2 -13 -1 -3 -12z"/>
<path d="M5326 4192 c-3 -5 1 -9 9 -9 8 0 12 4 9 9 -3 4 -7 8 -9 8 -2 0 -6 -4
-9 -8z"/>
<path d="M5344 4146 c0 -13 5 -23 13 -22 22 3 24 12 5 29 -17 15 -18 15 -18
-7z"/>
<path d="M5355 4055 c0 -19 3 -37 7 -40 4 -4 5 1 4 12 -2 10 1 23 5 29 6 7 4
16 -4 22 -11 9 -13 5 -12 -23z"/>
<path d="M5386 3972 c-3 -5 1 -15 8 -21 11 -10 14 -9 12 3 -3 21 -13 29 -20
18z"/>
<path d="M5294 3946 c1 -8 5 -18 8 -22 4 -3 5 1 4 10 -1 8 -5 18 -8 22 -4 3
-5 -1 -4 -10z"/>
<path d="M5704 5219 c-2 -4 0 -10 6 -14 6 -4 7 -12 4 -18 -5 -8 -3 -8 6 0 19
18 21 40 3 40 -7 0 -16 -4 -19 -8z"/>
<path d="M5704 5107 c1 -13 5 -27 8 -32 3 -6 4 -18 3 -28 -3 -14 -1 -16 10 -7
17 14 38 4 29 -13 -4 -7 -4 -9 1 -5 4 4 14 3 22 -3 7 -6 13 -8 13 -3 0 5 5 2
10 -6 8 -11 10 -5 8 23 -1 24 -10 44 -23 55 -20 17 -20 17 -1 -5 27 -32 5 -29
-25 3 -13 14 -32 30 -41 35 -14 7 -16 5 -14 -14z"/>
<path d="M5716 5011 c-3 -4 3 -16 14 -26 11 -10 17 -22 13 -28 -4 -6 -1 -7 6
-2 9 5 7 13 -8 29 -12 12 -18 26 -14 29 3 4 4 7 0 7 -3 0 -8 -4 -11 -9z"/>
<path d="M5779 4987 c6 -8 9 -16 6 -19 -3 -2 2 -5 10 -5 13 0 13 3 -2 19 -19
21 -31 25 -14 5z"/>
<path d="M5795 4930 c-4 -6 -12 -7 -18 -3 -7 3 -3 -3 7 -15 11 -12 20 -22 21
-22 0 0 1 11 1 25 0 28 -2 30 -11 15z"/>
<path d="M5761 4766 c-8 -10 -9 -16 -1 -21 6 -3 8 -10 5 -15 -3 -4 2 -7 12 -6
20 3 26 31 8 46 -9 7 -16 6 -24 -4z m25 -22 c2 -12 -1 -13 -12 -3 -7 6 -11 16
-8 21 7 11 17 3 20 -18z"/>
<path d="M5554 5216 c1 -8 5 -18 8 -22 4 -3 5 1 4 10 -1 8 -5 18 -8 22 -4 3
-5 -1 -4 -10z"/>
<path d="M5554 5115 c0 -24 3 -42 5 -39 8 7 9 74 1 79 -3 2 -6 -16 -6 -40z"/>
<path d="M5555 4921 c-3 -5 -2 -12 3 -15 5 -3 9 1 9 9 0 17 -3 19 -12 6z"/>
<path d="M5554 4866 c1 -14 4 -28 7 -31 3 -3 5 6 5 19 -1 14 -4 28 -7 31 -3 3
-5 -6 -5 -19z"/>
<path d="M5554 4566 c1 -8 5 -18 8 -22 4 -3 5 1 4 10 -1 8 -5 18 -8 22 -4 3
-5 -1 -4 -10z"/>
<path d="M5559 4518 c-6 -20 -6 -39 0 -42 4 -3 7 6 7 20 0 20 -4 32 -7 22z"/>
<path d="M5554 4415 c0 -13 3 -22 7 -19 8 4 6 30 -2 38 -3 3 -5 -5 -5 -19z"/>
<path d="M5556 4213 c-6 -14 -5 -15 5 -6 7 7 10 15 7 18 -3 3 -9 -2 -12 -12z"/>
<path d="M5554 4036 c1 -8 5 -18 8 -22 4 -3 5 1 4 10 -1 8 -5 18 -8 22 -4 3
-5 -1 -4 -10z"/>
<path d="M5555 3965 c0 -19 5 -38 9 -42 5 -4 6 -3 2 4 -3 6 -2 15 4 18 8 5 8
11 1 19 -6 7 -8 15 -5 18 3 3 1 8 -4 11 -4 3 -8 -9 -7 -28z"/>
<path d="M6195 5110 c-19 -8 -19 -8 5 -18 14 -6 21 -11 17 -11 -4 -1 8 -15 27
-32 20 -17 40 -28 45 -25 5 4 13 1 17 -5 5 -8 3 -9 -7 -3 -10 6 -9 1 3 -16 9
-14 21 -24 27 -22 6 1 10 -1 9 -5 -4 -13 45 -63 55 -56 6 3 7 2 4 -4 -9 -15
148 -167 164 -158 7 5 10 4 6 -2 -8 -12 57 -88 69 -80 5 3 18 -1 29 -9 10 -8
14 -14 9 -14 -6 0 -16 6 -23 13 -11 10 -13 9 -9 -2 2 -8 23 -30 46 -49 32 -26
42 -31 42 -18 0 22 -80 107 -93 99 -5 -3 -7 -1 -3 5 7 12 -101 119 -116 114
-5 -1 -7 1 -4 6 7 11 -111 128 -125 124 -6 -1 -8 1 -5 6 3 5 -11 26 -32 46
-20 20 -53 52 -72 72 -45 45 -60 53 -85 44z m140 -118 c-3 -3 -11 0 -18 7 -9
10 -8 11 6 5 10 -3 15 -9 12 -12z m119 -110 c3 -5 -1 -9 -9 -9 -8 0 -12 4 -9
9 3 4 7 8 9 8 2 0 6 -4 9 -8z"/>
<path d="M6413 5086 c3 -6 10 -10 16 -8 7 1 10 -2 7 -6 -8 -13 30 -45 44 -37
6 3 9 1 8 -7 -2 -7 2 -12 9 -11 6 2 15 -6 18 -17 3 -10 18 -30 33 -43 15 -13
62 -60 105 -105 72 -75 78 -78 73 -50 -7 42 -179 223 -201 211 -5 -4 -7 -2 -2
2 4 5 -5 21 -20 37 -30 32 -45 36 -36 11 3 -10 3 -15 -1 -11 -4 3 -9 14 -10
25 -2 11 -12 18 -25 19 -12 1 -20 -4 -18 -10z m256 -209 c8 -10 7 -14 -2 -14
-8 0 -14 6 -14 14 0 7 1 13 2 13 2 0 8 -6 14 -13z"/>
<path d="M6037 5083 c-4 -3 -7 -12 -7 -18 0 -18 190 -201 203 -197 7 2 9 0 4
-4 -4 -4 0 -16 10 -26 18 -20 38 -25 27 -5 -5 8 -2 8 9 -2 18 -15 23 -26 7
-16 -19 12 -10 -6 17 -33 15 -15 34 -27 43 -27 8 0 16 -6 16 -13 1 -6 2 -17 3
-22 0 -6 9 -10 18 -8 10 2 18 -1 18 -7 1 -23 32 -54 52 -51 12 3 20 -1 20 -10
0 -11 -4 -11 -16 -2 -9 7 2 -7 23 -30 22 -22 44 -38 49 -35 6 3 7 1 4 -4 -4
-6 14 -31 41 -56 117 -113 114 -110 123 -96 10 16 -9 42 -24 32 -5 -3 -7 -2
-4 4 8 13 -127 146 -138 136 -4 -4 -5 -3 -2 3 7 12 -25 47 -36 39 -4 -3 -5 -2
-2 2 10 13 -137 152 -154 146 -12 -4 -13 -2 -3 4 16 12 -102 128 -119 117 -7
-4 -9 -3 -6 3 7 11 -167 186 -176 176z m34 -40 c13 -16 12 -17 -3 -4 -10 7
-18 15 -18 17 0 8 8 3 21 -13z m504 -482 c3 -5 2 -12 -3 -15 -5 -3 -9 1 -9 9
0 17 3 19 12 6z m39 -50 c-2 -3 -12 3 -22 13 -16 17 -16 18 5 5 12 -7 20 -15
17 -18z"/>
<path d="M5952 4944 c2 -18 22 -44 62 -80 32 -29 62 -51 67 -49 4 3 11 0 15
-6 4 -8 3 -9 -4 -5 -7 4 -12 4 -12 -1 0 -11 73 -69 83 -65 5 1 6 -1 4 -5 -8
-13 19 -44 34 -41 8 2 13 -4 11 -13 -3 -20 65 -82 80 -73 7 4 8 2 4 -5 -8 -13
279 -298 296 -293 5 1 7 -2 4 -7 -8 -12 21 -34 34 -26 6 3 8 11 4 16 -3 5 -10
6 -16 3 -7 -5 -8 -2 -3 5 8 15 -253 283 -267 275 -5 -3 -7 -2 -6 3 3 9 -135
153 -146 153 -4 0 -4 -5 0 -12 4 -7 3 -8 -5 -4 -6 4 -8 12 -5 18 9 14 -105
120 -119 111 -6 -4 -7 -1 -2 7 5 8 -12 30 -51 66 -32 30 -60 54 -61 54 -2 0
-2 -12 -1 -26z m543 -516 c5 4 5 1 1 -6 -6 -10 -11 -10 -22 -1 -8 6 -14 14
-14 16 0 3 6 0 13 -6 8 -6 18 -7 22 -3z m79 -89 c-3 -5 -10 -7 -15 -3 -5 3 -7
10 -3 15 3 5 10 7 15 3 5 -3 7 -10 3 -15z"/>
<path d="M5950 4533 c0 -22 213 -237 224 -226 4 4 6 3 4 -2 -3 -12 41 -69 57
-73 6 -1 10 -8 10 -14 1 -7 6 -12 13 -10 7 1 11 -2 10 -6 -3 -10 135 -143 141
-136 3 2 -9 19 -25 37 l-29 32 37 -34 c67 -62 49 -27 -22 44 -38 38 -73 65
-77 61 -4 -4 3 -17 17 -28 l25 -20 -25 15 c-14 8 -25 23 -25 34 0 24 -24 55
-36 47 -5 -3 -8 0 -7 8 2 7 -3 12 -9 11 -7 -2 -12 3 -10 10 1 6 -5 11 -13 9
-8 -2 -11 0 -7 4 10 10 -114 135 -126 127 -6 -3 -7 -1 -4 4 9 14 -90 106 -105
97 -6 -4 -8 -3 -4 4 3 6 2 13 -4 17 -5 3 -10 -2 -10 -12z m80 -68 c14 -19 14
-19 -2 -6 -10 7 -18 18 -18 24 0 6 1 8 3 6 1 -2 9 -13 17 -24z"/>
<path d="M4100 4665 c18 -19 37 -32 41 -29 4 2 13 -5 19 -16 6 -11 17 -20 25
-20 8 0 12 -6 9 -14 -5 -13 29 -33 49 -28 4 1 7 -3 7 -9 0 -6 -7 -8 -17 -5
-13 5 -11 0 6 -18 13 -14 27 -23 32 -21 4 3 10 -1 12 -7 3 -7 6 -2 6 13 1 28
-59 95 -74 82 -4 -5 -5 -3 -1 4 8 14 -27 36 -39 25 -5 -4 -5 -1 -1 6 13 22
-42 72 -78 72 l-30 0 34 -35z"/>
<path d="M3968 4598 c61 -61 73 -69 87 -58 14 12 14 15 -2 32 -9 10 -23 16
-30 14 -7 -3 -15 0 -19 6 -5 7 -2 8 7 3 8 -5 5 1 -5 14 -11 12 -25 20 -32 17
-7 -3 -20 5 -31 17 l-18 22 23 -19 c12 -11 22 -14 22 -8 0 14 -32 32 -56 32
-12 0 5 -24 54 -72z m87 -38 c3 -6 -1 -7 -9 -4 -18 7 -21 14 -7 14 6 0 13 -4
16 -10z"/>
<path d="M3781 4601 c-12 -8 -9 -15 14 -43 15 -18 29 -31 30 -28 1 3 24 -19
50 -48 26 -28 51 -49 56 -46 5 3 8 1 7 -4 -4 -15 253 -262 265 -255 6 3 7 1 3
-5 -4 -6 1 -18 11 -26 38 -31 58 -51 43 -41 -10 6 -8 2 4 -13 11 -12 21 -22
24 -22 3 0 2 3 -1 7 -4 3 -2 12 4 19 16 19 -152 190 -177 180 -13 -5 -14 -4
-6 7 8 10 2 22 -28 51 -22 21 -44 35 -50 31 -6 -4 -9 -1 -8 7 2 7 -3 12 -10
10 -8 -1 -11 2 -7 8 3 5 -16 31 -42 57 -149 146 -168 162 -182 154z m40 -38
c13 -16 12 -17 -3 -4 -17 13 -22 21 -14 21 2 0 10 -8 17 -17z m40 -40 c13 -16
12 -17 -3 -4 -10 7 -18 15 -18 17 0 8 8 3 21 -13z m34 -34 c-4 -5 -1 -9 6 -9
7 0 9 -3 6 -6 -9 -9 -38 16 -31 27 3 5 10 7 15 3 5 -3 7 -10 4 -15z m208 -192
c4 3 7 4 7 0 0 -17 -20 -14 -36 6 -19 22 -19 22 2 4 11 -9 24 -14 27 -10z m77
-77 c0 -5 -2 -10 -4 -10 -3 0 -8 5 -11 10 -3 6 -1 10 4 10 6 0 11 -4 11 -10z"/>
<path d="M3637 4516 c-3 -8 15 -33 46 -61 29 -26 129 -124 224 -217 96 -96
176 -167 182 -164 6 4 9 1 6 -7 -7 -16 29 -52 43 -43 5 3 9 -2 8 -12 -1 -12 6
-16 24 -14 19 1 21 0 10 -7 -12 -8 -11 -14 9 -35 13 -14 28 -23 34 -19 6 3 7
1 4 -4 -11 -17 16 -33 30 -18 9 10 1 23 -36 59 -26 26 -51 43 -55 39 -4 -5 -6
-3 -4 3 4 14 -60 86 -71 79 -5 -3 -13 0 -17 6 -5 8 -3 9 7 4 8 -5 5 2 -6 16
-26 31 -37 39 -47 33 -5 -3 -7 -1 -6 4 3 9 -27 42 -111 126 -16 16 -34 26 -40
22 -6 -4 -9 -2 -5 7 3 9 -15 31 -48 57 -65 53 -78 66 -58 55 13 -8 13 -6 2 7
-8 10 -21 14 -30 11 -9 -3 -14 -3 -10 2 10 10 -49 85 -67 85 -7 0 -15 -6 -18
-14z m264 -243 c13 -16 12 -17 -3 -4 -17 13 -22 21 -14 21 2 0 10 -8 17 -17z
m159 -153 c0 -5 -5 -10 -11 -10 -5 0 -7 5 -4 10 3 6 8 10 11 10 2 0 4 -4 4
-10z"/>
<path d="M4275 4330 c3 -5 8 -10 11 -10 2 0 4 5 4 10 0 6 -5 10 -11 10 -5 0
-7 -4 -4 -10z"/>
<path d="M3465 4280 c-3 -5 1 -10 9 -10 9 0 16 -5 16 -11 0 -5 -4 -7 -10 -4
-23 15 -6 -10 41 -61 29 -29 56 -51 60 -48 5 3 9 0 9 -6 0 -6 5 -8 12 -4 6 4
8 3 5 -3 -8 -13 17 -36 28 -25 5 4 5 2 1 -5 -8 -14 149 -170 166 -165 5 1 7
-2 4 -7 -3 -5 14 -27 39 -50 25 -23 45 -44 45 -47 0 -9 74 -69 83 -66 4 1 6
-2 3 -7 -3 -5 17 -30 45 -56 40 -37 53 -45 60 -34 6 10 -7 29 -43 66 -29 29
-57 52 -63 51 -5 0 -18 2 -28 7 -15 6 -16 10 -5 16 10 6 -1 23 -42 65 -115
119 -163 163 -173 157 -6 -3 -7 -1 -4 4 4 6 -35 50 -86 99 -147 141 -165 156
-172 144z m55 -50 c8 -15 8 -18 -3 -14 -8 3 -14 11 -14 19 0 20 4 19 17 -5z
m146 -139 c-3 -5 1 -11 9 -15 8 -3 15 -10 15 -16 0 -5 -9 -2 -19 7 -17 14 -20
33 -5 33 3 0 3 -4 0 -9z"/>
<path d="M3440 4098 c0 -27 71 -103 85 -91 4 5 5 3 2 -4 -8 -13 -14 -6 236
-252 142 -140 180 -172 190 -162 9 10 6 17 -16 37 -15 13 -25 24 -21 24 4 0
-8 14 -26 30 -18 17 -38 30 -42 30 -5 0 -6 5 -3 10 3 6 2 10 -3 10 -5 0 -81
72 -167 160 -87 87 -162 157 -167 154 -5 -3 -7 0 -6 8 2 7 -6 13 -17 13 -13 0
-19 6 -17 16 1 9 -5 22 -13 29 -13 11 -15 9 -15 -12z m164 -159 c-3 -5 -10 -7
-15 -3 -5 3 -7 10 -3 15 3 5 10 7 15 3 5 -3 7 -10 3 -15z m36 -25 c0 -8 -19
-13 -24 -6 -3 5 1 9 9 9 8 0 15 -2 15 -3z"/>
<path d="M3840 4090 c0 -5 5 -10 11 -10 5 0 7 5 4 10 -3 6 -8 10 -11 10 -2 0
-4 -4 -4 -10z"/>
<path d="M3462 3880 c7 -19 23 -50 37 -69 31 -43 101 -107 113 -103 5 1 7 -2
4 -7 -6 -10 42 -61 57 -61 4 0 6 -4 3 -9 -8 -13 14 -28 53 -36 34 -7 34 -7
-34 63 -38 39 -73 68 -79 65 -5 -3 -6 -2 -3 4 4 5 -22 37 -56 70 -35 33 -73
73 -85 89 l-21 29 11 -35z m188 -200 c0 -5 -2 -10 -4 -10 -3 0 -8 5 -11 10 -3
6 -1 10 4 10 6 0 11 -4 11 -10z"/>
<path d="M3955 3800 c4 -6 11 -8 16 -5 14 9 11 15 -7 15 -8 0 -12 -5 -9 -10z"/>
<path d="M5705 4691 c-3 -5 -1 -13 5 -16 8 -5 8 -11 0 -20 -8 -9 -8 -15 0 -20
6 -3 8 -10 5 -15 -3 -5 -2 -11 3 -14 7 -4 9 59 2 74 -1 3 -2 8 -1 13 1 10 -7
9 -14 -2z"/>
<path d="M5795 4521 c-3 -5 -2 -12 3 -15 5 -3 9 1 9 9 0 17 -3 19 -12 6z"/>
<path d="M5744 4462 c3 -6 2 -14 -4 -17 -8 -5 -7 -11 1 -21 6 -7 15 -11 21 -8
5 4 5 11 -1 18 -6 7 -8 15 -5 18 3 3 0 9 -7 14 -7 4 -10 3 -5 -4z"/>
<path d="M5719 4418 c-8 -28 -4 -35 20 -34 18 1 25 -3 23 -14 -2 -8 0 -11 4
-7 18 18 11 34 -15 33 -15 0 -25 5 -23 12 2 10 -6 18 -9 10z"/>
<path d="M5713 4325 c0 -8 4 -12 9 -9 5 3 6 10 3 15 -9 13 -12 11 -12 -6z"/>
<path d="M6954 4426 c1 -8 5 -18 8 -22 4 -3 5 1 4 10 -1 8 -5 18 -8 22 -4 3
-5 -1 -4 -10z"/>
<path d="M6890 4206 c0 -2 8 -10 18 -17 15 -13 16 -12 3 4 -13 16 -21 21 -21
13z"/>
<path d="M5714 4115 c0 -13 5 -23 10 -22 12 2 15 -24 4 -39 -8 -11 28 -52 41
-46 3 1 7 -2 7 -8 1 -5 3 -12 4 -15 1 -3 3 -9 4 -15 0 -5 6 -14 12 -20 7 -7
10 -1 9 22 0 18 -5 35 -10 36 -18 7 -35 24 -30 32 3 4 -2 13 -10 20 -8 7 -13
16 -10 20 3 5 1 11 -5 15 -6 4 -8 10 -5 15 3 4 -1 13 -8 18 -10 9 -13 6 -13
-13z m42 -81 c2 -12 -1 -13 -12 -3 -7 6 -11 16 -8 21 7 11 17 3 20 -18z m41
-39 c0 -8 -4 -12 -9 -9 -5 3 -6 10 -3 15 9 13 12 11 12 -6z"/>
<path d="M5703 3995 c0 -8 4 -12 9 -9 4 3 14 2 21 -3 6 -4 18 -8 25 -9 10 -2
11 1 1 12 -6 8 -14 12 -17 10 -2 -3 -12 -1 -22 4 -12 6 -17 5 -17 -5z"/>
<path d="M6730 3956 c0 -2 8 -10 18 -17 15 -13 16 -12 3 4 -13 16 -21 21 -21
13z"/>
<path d="M5623 3773 c4 -6 3 -14 -2 -17 -5 -4 -8 -14 -7 -24 2 -9 -2 -20 -8
-24 -8 -6 -8 -8 0 -8 6 0 17 7 24 15 7 8 9 15 5 15 -4 0 -2 6 4 14 9 10 7 17
-6 27 -9 8 -14 9 -10 2z"/>
<path d="M5549 3753 c-13 -15 -14 -14 23 -17 21 -2 25 0 18 9 -5 6 -8 14 -5
17 3 2 -2 5 -10 5 -8 0 -20 -6 -26 -14z m25 -1 c3 -5 -1 -9 -9 -9 -8 0 -12 4
-9 9 3 4 7 8 9 8 2 0 6 -4 9 -8z"/>
<path d="M5786 3751 c-14 -16 -15 -20 -2 -30 11 -9 16 -9 22 1 22 35 6 58 -20
29z m19 -8 c-2 -10 -4 -19 -4 -21 -1 -2 -6 0 -11 3 -8 5 -7 11 1 21 15 18 18
18 14 -3z"/>
<path d="M5835 3741 c1 -14 -3 -33 -9 -41 -7 -10 -3 -9 10 3 11 9 24 15 27 12
4 -3 5 -2 2 2 -3 3 4 16 15 28 15 16 17 22 6 22 -8 0 -14 -3 -13 -6 1 -3 -2
-7 -8 -7 -5 -1 -9 1 -8 5 1 4 -4 8 -11 8 -7 0 -12 -11 -11 -26z m20 0 c3 -5 2
-12 -3 -15 -5 -3 -9 1 -9 9 0 17 3 19 12 6z"/>
<path d="M5895 3739 c-3 -4 2 -6 10 -5 21 3 28 13 10 13 -9 0 -18 -4 -20 -8z"/>
<path d="M5494 3695 c0 -21 3 -22 35 -16 2 1 -2 7 -8 14 -6 8 -9 16 -6 19 3 2
-1 5 -8 5 -7 0 -13 -10 -13 -22z"/>
<path d="M5554 3708 c-12 -19 -13 -37 -3 -44 11 -6 2 -24 -12 -24 -6 0 -8 4
-5 8 2 4 -6 8 -19 8 -13 0 -23 -2 -23 -5 2 -20 -4 -31 -14 -28 -7 1 -12 -7
-13 -17 0 -11 7 -20 16 -21 9 -2 16 4 16 14 0 34 3 42 13 36 6 -4 8 -10 5 -15
-3 -5 -1 -11 5 -15 6 -4 8 -10 5 -15 -7 -12 23 -6 36 7 8 8 8 13 0 17 -18 12
-12 25 9 21 11 -2 19 -1 19 3 -1 4 0 9 1 12 8 23 5 41 -10 55 -15 13 -20 14
-26 3z m32 -32 c1 -9 -5 -21 -14 -28 -10 -8 -13 -9 -9 -1 4 6 3 14 -2 17 -5 4
-8 14 -6 24 2 9 4 19 4 22 2 9 25 -20 27 -34z m-32 -78 c-3 -5 -12 -4 -20 3
-8 6 -12 14 -9 17 3 3 -1 12 -7 21 -7 9 0 5 14 -8 15 -13 25 -28 22 -33z m-69
13 c3 -5 2 -12 -3 -15 -5 -3 -9 1 -9 9 0 17 3 19 12 6z"/>
<path d="M5564 3686 c1 -8 5 -18 8 -22 4 -3 5 1 4 10 -1 8 -5 18 -8 22 -4 3
-5 -1 -4 -10z"/>
<path d="M5619 3683 c-1 -2 -2 -6 -3 -10 -1 -5 -5 -13 -9 -20 -4 -6 -3 -14 3
-18 6 -4 7 -12 4 -18 -4 -7 6 0 23 16 36 33 38 53 6 53 -12 0 -24 -1 -24 -3z
m40 -12 c2 -1 -4 -10 -14 -21 -19 -21 -43 -17 -26 4 6 7 8 15 5 19 -3 3 2 4
13 2 10 -2 20 -4 22 -4z"/>
<path d="M5629 3653 c-13 -16 -12 -17 4 -4 16 13 21 21 13 21 -2 0 -10 -8 -17
-17z"/>
<path d="M4323 3665 c0 -6 6 -12 12 -12 6 0 12 6 12 12 0 6 -6 12 -12 12 -6 0
-12 -6 -12 -12z"/>
<path d="M4564 3656 c2 -28 10 -39 30 -42 8 -1 13 5 12 15 -2 9 -9 16 -17 16
-8 0 -14 5 -14 12 0 6 -3 14 -6 17 -3 4 -5 -5 -5 -18z m36 -22 c0 -8 -19 -13
-24 -6 -3 5 1 9 9 9 8 0 15 -2 15 -3z"/>
<path d="M4715 3670 c-3 -6 1 -7 9 -4 18 7 21 14 7 14 -6 0 -13 -4 -16 -10z"/>
<path d="M4754 3673 c3 -6 2 -14 -3 -17 -8 -5 -8 -14 -2 -45 1 -2 7 2 15 8 17
14 15 36 -4 54 -9 8 -11 8 -6 0z m12 -28 c-1 -8 -5 -17 -8 -21 -5 -4 -4 16 1
34 3 9 9 -1 7 -13z"/>
<path d="M4925 3671 c-3 -5 0 -13 5 -16 8 -5 5 -14 -7 -28 -10 -12 -14 -19 -9
-15 12 10 38 -11 29 -25 -3 -6 -1 -7 6 -3 9 6 9 11 0 22 -7 8 -7 14 -1 14 12
0 34 -25 27 -32 -5 -5 44 -3 55 2 3 1 9 2 13 1 5 -1 6 3 2 9 -5 8 -11 8 -19 1
-7 -6 -16 -7 -20 -3 -4 4 -12 8 -17 8 -5 1 -12 2 -15 3 -4 0 -1 8 6 16 7 8 16
13 20 10 12 -7 6 23 -7 36 -10 10 -31 -6 -31 -26 0 -5 -6 -11 -13 -14 -6 -2
-9 1 -5 7 3 6 2 13 -4 17 -6 4 -8 11 -5 16 4 5 4 9 1 9 -3 0 -7 -4 -11 -9z
m69 -10 c3 -4 -4 -17 -16 -27 -13 -12 -18 -13 -12 -4 5 8 9 18 10 23 3 15 4
17 8 17 3 0 7 -4 10 -9z"/>
<path d="M5036 3661 c-15 -16 -15 -19 -1 -31 9 -7 15 -9 14 -4 -1 5 0 11 1 14
4 10 8 40 6 40 -2 0 -10 -8 -20 -19z"/>
<path d="M5107 3669 c7 -9 11 -18 8 -21 -3 -2 1 -5 8 -5 8 0 14 6 14 14 0 7
-3 11 -5 8 -3 -3 -12 1 -21 8 -14 10 -14 10 -4 -4z"/>
<path d="M5253 3667 c0 -8 6 -14 14 -14 9 0 10 4 2 14 -6 7 -12 13 -14 13 -1
0 -2 -6 -2 -13z"/>
<path d="M5399 3666 c5 -6 7 -19 6 -28 -4 -21 20 -44 30 -28 3 5 3 10 -1 10
-4 0 1 9 10 19 12 13 14 21 6 26 -6 3 -10 3 -9 -2 3 -20 -2 -25 -16 -13 -8 7
-13 16 -10 19 2 4 -2 8 -10 8 -9 0 -11 -4 -6 -11z m27 -42 c1 -9 0 -13 -4 -10
-3 4 -7 14 -8 22 -1 9 0 13 4 10 3 -4 7 -14 8 -22z"/>
<path d="M5465 3670 c3 -5 8 -10 11 -10 2 0 4 5 4 10 0 6 -5 10 -11 10 -5 0
-7 -4 -4 -10z"/>
<path d="M4656 3658 c3 -5 -7 -6 -21 -4 -26 5 -26 4 -11 -13 9 -10 14 -20 11
-23 -3 -3 3 -13 14 -22 12 -11 21 -14 26 -7 6 11 5 12 -17 15 -11 1 -22 36
-10 36 3 0 14 -8 24 -17 15 -14 19 -14 16 -3 -2 9 3 14 12 12 11 -3 11 1 -3
16 -17 18 -51 27 -41 10z m28 -19 c-3 -5 -10 -7 -15 -3 -5 3 -7 10 -3 15 3 5
10 7 15 3 5 -3 7 -10 3 -15z"/>
<path d="M4403 3655 c4 -4 0 -16 -9 -26 -8 -9 -11 -20 -6 -23 5 -3 17 3 26 13
15 17 15 19 -1 32 -10 7 -15 9 -10 4z m17 -19 c0 -2 -8 -10 -17 -17 -16 -13
-17 -12 -4 4 13 16 21 21 21 13z"/>
<path d="M5166 3652 c-3 -5 1 -15 9 -22 8 -7 15 -9 15 -5 0 4 6 2 13 -4 10 -8
14 -7 14 4 0 8 -3 13 -5 10 -3 -3 -13 2 -23 11 -10 9 -20 11 -23 6z"/>
<path d="M5331 3644 c6 -8 8 -14 4 -14 -5 0 0 -9 10 -20 12 -14 22 -17 29 -10
6 6 15 5 25 -3 10 -7 9 -3 -3 10 -10 12 -23 21 -29 20 -6 -1 -11 4 -12 12 0 8
-8 15 -18 17 -15 2 -16 0 -6 -12z m44 -26 c5 4 5 1 1 -6 -6 -10 -11 -10 -22
-1 -8 6 -14 14 -14 16 0 3 6 0 13 -6 8 -6 18 -7 22 -3z"/>
<path d="M4332 3631 c2 -19 -4 -22 -19 -10 -16 12 -17 12 -6 -2 7 -9 9 -20 5
-25 -4 -4 0 -3 8 3 8 6 23 9 33 8 14 -3 15 0 8 9 -6 7 -9 15 -6 18 3 2 -1 5
-9 5 -8 0 -15 -3 -14 -6z"/>
<path d="M4453 3625 c0 -6 6 -12 12 -12 6 0 12 6 12 12 0 6 -6 12 -12 12 -6 0
-12 -6 -12 -12z"/>
<path d="M4813 3617 c0 -8 6 -14 14 -14 9 0 10 4 2 14 -6 7 -12 13 -14 13 -1
0 -2 -6 -2 -13z"/>
<path d="M5155 3600 c10 -11 20 -20 23 -20 3 0 -3 9 -13 20 -10 11 -20 20 -23
20 -3 0 3 -9 13 -20z"/>
<path d="M5281 3602 c34 -23 55 -26 35 -3 -8 9 -25 17 -37 18 -22 2 -22 2 2
-15z"/>
<path d="M4785 3601 c-3 -6 -15 -8 -27 -6 -11 3 -18 1 -14 -2 12 -13 35 -11
47 3 6 8 9 14 6 14 -3 0 -8 -4 -12 -9z"/>
<path d="M4697 3589 c7 -7 15 -10 18 -7 3 3 -2 9 -12 12 -14 6 -15 5 -6 -5z"/>
<path d="M5743 3653 c0 -8 11 -19 25 -24 34 -13 34 -8 2 18 -21 17 -27 19 -27
6z"/>
<path d="M6575 3525 c19 -15 18 -16 -17 -12 -21 2 -46 -1 -55 -8 -15 -11 -14
-12 11 -10 15 2 30 6 33 9 3 2 15 1 28 -4 27 -10 67 11 46 24 -7 5 -15 5 -18
2 -3 -3 -15 -1 -27 5 -21 10 -21 10 -1 -6z"/>
<path d="M6858 3513 c-6 -7 -8 -16 -4 -20 3 -3 6 -1 6 6 0 7 4 10 9 7 5 -3 14
0 20 7 8 10 7 14 -4 14 -9 0 -20 -6 -27 -14z"/>
<path d="M6825 3500 c-3 -5 -1 -10 4 -10 6 0 11 5 11 10 0 6 -2 10 -4 10 -3 0
-8 -4 -11 -10z"/>
<path d="M3403 3505 c0 -8 4 -12 9 -9 5 3 6 10 3 15 -9 13 -12 11 -12 -6z"/>
<path d="M5514 3428 c-3 -5 0 -7 8 -6 7 2 12 -2 11 -9 -2 -9 16 -11 37 -3 3 1
10 2 15 0 6 -1 4 4 -3 11 -14 15 -60 20 -68 7z m56 -4 c0 -8 -19 -13 -24 -6
-3 5 1 9 9 9 8 0 15 -2 15 -3z"/>
<path d="M5596 3430 c5 -8 9 -18 10 -22 1 -5 2 -9 4 -10 1 -2 3 -18 5 -36 2
-23 0 -30 -8 -25 -7 4 -6 -1 2 -10 15 -19 24 -16 27 8 1 8 -2 15 -8 15 -7 0
-6 5 1 14 8 10 9 16 1 21 -6 3 -8 10 -5 14 2 5 -5 17 -17 27 -13 12 -18 13
-12 4z"/>
<path d="M5634 3418 c5 -9 13 -14 16 -10 3 4 13 8 24 10 12 2 16 -1 10 -10 -4
-7 3 -4 15 7 13 11 25 18 26 15 2 -3 6 -3 8 0 3 3 -20 5 -52 5 -53 0 -57 -1
-47 -17z"/>
<path d="M5754 3428 c-4 -7 -4 -10 1 -6 4 4 15 2 24 -5 14 -11 14 -10 2 6 -16
20 -18 21 -27 5z"/>
<path d="M5799 3425 c5 -5 7 -18 6 -27 -3 -16 3 -17 44 -6 7 1 16 -3 19 -11 2
-8 0 -11 -6 -7 -6 3 -14 1 -18 -5 -4 -7 -3 -9 4 -5 6 3 17 -2 24 -13 14 -19
14 -19 26 -1 7 12 18 17 33 13 14 -4 20 -2 16 4 -4 6 1 17 10 24 15 12 16 12
10 -3 -3 -10 -3 -17 1 -15 4 1 8 -2 10 -8 1 -5 -2 -11 -8 -11 -5 -1 -11 -2
-12 -4 -2 -1 -11 -3 -21 -5 -29 -5 -49 -27 -37 -39 5 -5 10 -15 10 -20 -1 -6
-10 0 -22 14 -12 14 -19 18 -15 8 6 -16 -24 -52 -36 -43 -4 3 -5 2 -2 -2 3 -3
-1 -13 -8 -21 -10 -13 -9 -14 3 -7 8 6 23 10 33 11 9 1 19 3 22 4 3 1 11 3 18
4 6 1 11 7 10 14 -3 14 13 16 22 3 3 -5 1 -12 -5 -16 -6 -4 -8 -11 -4 -16 3
-5 11 -6 17 -2 22 14 49 14 41 1 -4 -7 4 -3 18 10 27 25 47 30 28 7 -14 -17
-16 -17 33 -19 l37 -2 -20 21 c-28 30 -25 43 3 17 17 -17 24 -18 24 -8 0 8 -5
14 -11 13 -5 -1 -10 7 -10 18 0 11 5 19 10 18 20 -4 9 72 -14 102 -12 17 -19
22 -16 13 4 -12 1 -16 -13 -13 -10 2 -22 4 -26 4 -5 1 -6 5 -3 10 5 8 -2 8
-33 2 -2 -1 2 -7 8 -14 13 -16 5 -28 -14 -21 -8 3 -12 14 -10 24 4 20 -14 21
-37 2 -8 -6 -17 -9 -20 -7 -13 13 -48 12 -59 -1 -6 -8 -16 -14 -22 -14 -5 0
-3 8 6 18 15 17 14 18 -18 18 -22 0 -31 -4 -26 -11z m31 -10 c-5 -7 -9 -14 -7
-16 1 -2 0 -3 -2 -1 -11 7 -7 29 5 29 9 0 11 -4 4 -12z m119 -21 c-12 -13 -25
-22 -27 -19 -3 3 -13 -2 -23 -11 -11 -10 -19 -12 -24 -4 -3 6 -3 10 2 9 23 -4
25 3 5 17 -12 8 -20 19 -17 24 5 9 37 6 54 -4 5 -3 14 1 21 9 7 8 17 12 22 9
5 -3 -1 -17 -13 -30z m113 11 c21 4 32 -11 34 -45 2 -28 -13 -53 -27 -44 -14
8 -11 26 4 18 6 -4 9 -4 5 1 -4 4 -2 15 5 23 10 13 9 14 -2 7 -8 -5 -12 -4 -8
1 3 6 -12 10 -35 10 -35 0 -38 -1 -23 -13 10 -7 21 -10 26 -8 19 12 17 -16 -3
-34 -24 -23 -47 -29 -29 -7 8 10 8 16 -2 25 -8 6 -18 7 -23 3 -4 -4 -3 0 4 9
8 10 8 19 2 27 -6 7 -7 10 -4 7 4 -3 13 0 21 6 11 10 11 15 1 27 -12 14 -10
14 12 0 14 -9 33 -14 42 -13z m-82 -81 c0 -10 -5 -12 -12 -7 -19 11 -38 12
-38 2 0 -6 6 -9 13 -7 6 2 12 -2 12 -7 0 -6 -6 -9 -13 -9 -10 2 -10 -1 -1 -12
13 -15 33 -14 35 2 5 28 18 53 26 48 5 -3 5 -11 -2 -19 -17 -21 6 -28 33 -10
22 14 25 14 38 -2 8 -9 9 -14 2 -10 -19 12 -26 -13 -9 -32 14 -16 14 -17 -9
-17 -17 0 -21 3 -14 12 13 16 -12 36 -31 24 -8 -6 -11 -10 -7 -10 5 0 5 -5 2
-10 -5 -8 -11 -7 -21 1 -11 9 -14 9 -14 -1 0 -8 -3 -10 -7 -7 -3 4 -13 1 -22
-6 -14 -10 -14 -10 -4 4 10 12 8 20 -12 42 -25 26 -25 26 -5 37 11 6 20 7 20
3 0 -4 5 -2 12 5 14 14 28 7 28 -14z m-80 -50 c8 -8 9 -14 4 -13 -5 1 -11 0
-14 -1 -3 -1 -13 -3 -23 -5 -18 -3 -18 -3 -1 16 21 23 19 23 34 3z"/>
<path d="M5940 3405 c-7 -8 -17 -12 -23 -8 -6 4 -7 1 -3 -6 6 -9 13 -8 27 5
10 9 19 19 19 21 0 7 -8 2 -20 -12z"/>
<path d="M6016 3392 c-2 -4 13 -7 35 -7 21 -1 36 1 33 4 -8 8 -63 10 -68 3z"/>
<path d="M5984 3286 c1 -8 5 -18 8 -22 4 -3 5 1 4 10 -1 8 -5 18 -8 22 -4 3
-5 -1 -4 -10z"/>
<path d="M5744 3389 c-17 -19 -40 -27 -29 -10 10 16 -12 21 -25 6 -14 -16 -34
-10 -24 7 4 7 2 8 -5 4 -9 -6 -9 -11 0 -22 6 -8 8 -14 4 -14 -4 0 -2 -7 5 -15
10 -13 10 -19 -4 -34 -19 -21 -36 -22 -58 -3 -12 9 -15 9 -15 -3 0 -7 5 -13
11 -12 5 1 10 -7 10 -18 0 -11 -5 -19 -12 -17 -7 1 -12 -2 -12 -7 0 -6 9 -9
19 -8 11 0 19 4 18 7 -1 3 3 5 8 5 6 0 9 -4 7 -8 -1 -5 5 -4 15 1 13 8 21 6
31 -6 11 -15 12 -14 2 5 -7 15 -16 20 -28 16 -16 -6 -16 -5 0 13 17 19 64 32
53 14 -3 -5 -1 -11 4 -15 5 -3 8 -13 6 -23 -2 -13 3 -18 21 -18 21 0 22 2 9
16 -11 13 -12 19 -3 28 14 14 32 16 23 3 -3 -5 -1 -12 5 -16 6 -4 7 -11 4 -17
-4 -7 -2 -8 4 -4 7 4 12 2 12 -5 0 -16 11 -5 14 14 3 23 27 47 40 40 6 -3 3 2
-6 12 -16 17 -16 19 0 32 16 12 16 13 0 7 -11 -4 -20 0 -23 8 -3 8 -12 15 -20
15 -8 0 -12 -3 -10 -7 2 -4 -6 -17 -19 -29 -20 -19 -24 -20 -36 -6 -13 15 -35
11 -25 -6 4 -5 2 -9 -4 -9 -18 0 -21 17 -7 36 10 13 18 15 27 8 18 -14 44 -12
44 3 0 6 3 15 8 19 11 11 9 21 -7 27 -8 3 -22 -3 -32 -14z m27 -13 c-6 -7 -8
-15 -5 -19 3 -3 -2 -4 -13 -2 -10 2 -20 4 -22 4 -2 1 4 10 14 21 19 21 43 17
26 -4z m-65 2 c-3 -22 -17 -39 -27 -32 -6 4 -3 14 7 25 20 22 23 23 20 7z
m112 -39 c-2 -3 3 -13 9 -21 11 -12 9 -18 -7 -33 -11 -10 -17 -23 -13 -29 3
-6 0 -5 -8 2 -8 7 -15 17 -15 23 -1 5 -2 14 -3 21 0 6 -12 1 -26 -12 -14 -13
-25 -22 -26 -19 -1 2 -2 16 -3 32 -3 25 -1 26 14 12 15 -13 19 -13 40 10 13
14 28 24 33 22 5 -1 7 -5 5 -8z m-122 -31 c4 -7 3 -10 -1 -5 -5 4 -17 -1 -27
-10 -20 -18 -52 -27 -42 -12 3 5 9 7 13 4 5 -2 16 4 26 15 21 24 22 24 31 8z"/>
<path d="M5749 3373 c-13 -16 -12 -17 4 -4 16 13 21 21 13 21 -2 0 -10 -8 -17
-17z"/>
<path d="M5794 3326 c-18 -14 -18 -15 -1 -21 15 -6 15 -10 5 -24 -9 -11 -5
-10 10 3 15 13 19 23 12 31 -5 6 -7 15 -3 18 12 12 -3 7 -23 -7z m21 -16 c3
-6 -1 -7 -9 -4 -18 7 -21 14 -7 14 6 0 13 -4 16 -10z"/>
<path d="M5733 3295 c0 -8 4 -12 9 -9 5 3 6 10 3 15 -9 13 -12 11 -12 -6z"/>
<path d="M5696 3267 c3 -10 9 -15 12 -12 3 3 0 11 -7 18 -10 9 -11 8 -5 -6z"/>
<path d="M3496 3379 c21 -23 23 -23 20 -2 -2 9 -11 17 -20 19 -17 2 -17 2 0
-17z"/>
<path d="M3557 3384 c-14 -14 14 -34 33 -24 9 5 21 6 26 2 5 -4 2 1 -5 11 -14
18 -26 24 -16 7 8 -13 -8 -13 -21 0 -6 6 -13 7 -17 4z"/>
<path d="M3650 3366 c0 -2 7 -7 16 -10 8 -3 12 -2 9 4 -6 10 -25 14 -25 6z"/>
<path d="M6351 3383 c8 -9 9 -14 2 -10 -6 4 -14 4 -17 -1 -3 -5 8 -8 23 -8 35
0 36 27 1 33 -20 3 -21 1 -9 -14z"/>
<path d="M6424 3383 c2 -15 13 -18 57 -18 42 0 53 4 51 15 -2 13 -1 13 10 0 7
-8 19 -16 27 -18 12 -3 12 -1 0 14 -8 10 -9 15 -2 11 6 -4 14 -3 17 1 3 5 -12
9 -34 9 -22 0 -37 -4 -34 -8 2 -4 0 -10 -5 -13 -5 -3 -11 0 -14 7 -3 7 -21 14
-40 15 -29 2 -35 -1 -33 -15z m60 -2 c-7 -8 -54 -9 -49 -1 2 3 15 6 29 6 14 0
23 -2 20 -5z"/>
<path d="M6623 3386 c-4 -5 -1 -6 6 -2 7 5 20 1 31 -9 12 -11 20 -13 25 -5 3
5 12 7 18 3 15 -9 41 -14 33 -6 -3 4 -1 11 4 18 7 9 -6 11 -51 11 -33 0 -63
-4 -66 -10z"/>
<path d="M3643 3254 c1 -15 7 -20 24 -19 27 1 49 20 35 29 -5 3 -15 -1 -22 -9
-11 -13 -14 -13 -26 2 -12 17 -13 17 -11 -3z"/>
<path d="M3744 3255 c5 -14 -5 -20 -27 -16 -5 1 -6 -2 -3 -7 4 -7 39 -8 56 -2
3 1 8 2 11 2 3 -1 6 5 6 13 0 8 -4 12 -8 9 -4 -2 -10 0 -14 6 -10 16 -28 12
-21 -5z m21 -4 c3 -5 2 -12 -3 -15 -5 -3 -9 1 -9 9 0 17 3 19 12 6z"/>
<path d="M3810 3255 c-7 -8 -11 -15 -9 -16 31 -6 40 -6 44 1 3 4 -1 13 -9 19
-10 9 -16 8 -26 -4z m24 -3 c3 -5 -1 -9 -9 -9 -8 0 -12 4 -9 9 3 4 7 8 9 8 2
0 6 -4 9 -8z"/>
<path d="M3859 3256 c6 -7 9 -15 6 -18 -3 -2 1 -5 9 -5 20 0 13 30 -8 33 -13
2 -14 -1 -7 -10z"/>
<path d="M3905 3260 c6 -8 10 -18 10 -22 0 -13 19 -4 22 10 1 8 -1 11 -4 8 -4
-3 -13 0 -21 7 -13 10 -14 9 -7 -3z"/>
<path d="M6603 3255 c0 -8 4 -12 9 -9 5 3 6 10 3 15 -9 13 -12 11 -12 -6z"/>
<path d="M3831 3134 c4 -21 -2 -28 -12 -14 -9 12 -10 13 -7 0 3 -8 16 -15 29
-15 14 -1 31 -5 37 -9 6 -3 13 -2 17 3 3 6 11 9 18 7 7 -1 9 -1 4 1 -4 3 -5 8
-3 12 3 4 -9 7 -27 6 -18 -1 -38 3 -45 9 -7 5 -12 5 -11 0z m63 -26 c-3 -4
-11 -5 -19 -1 -21 7 -19 12 4 10 11 0 18 -5 15 -9z"/>
<path d="M6319 3126 c6 -7 9 -15 6 -18 -3 -2 1 -5 9 -5 20 0 13 30 -8 33 -13
2 -14 -1 -7 -10z"/>
<path d="M3991 3077 c-7 -10 13 -12 84 -12 52 0 98 4 102 9 4 4 4 7 -2 6 -5
-1 -12 -1 -15 0 -15 6 -72 5 -76 -1 -2 -4 -13 -6 -24 -3 -11 2 -29 6 -39 8
-11 3 -24 -1 -30 -7z"/>
<path d="M4236 3081 c-4 -5 -2 -12 3 -15 5 -4 12 -2 15 3 4 5 2 12 -3 15 -5 4
-12 2 -15 -3z"/>
<path d="M4293 3075 c0 -8 4 -12 9 -9 5 3 6 10 3 15 -9 13 -12 11 -12 -6z"/>
<path d="M4331 3077 c-9 -11 -6 -14 14 -13 13 1 28 6 32 11 4 6 4 7 -1 3 -5
-4 -15 -3 -21 2 -9 7 -16 6 -24 -3z"/>
<path d="M4555 3080 c-3 -5 -5 -10 -3 -11 33 -8 38 -7 27 7 -14 17 -16 17 -24
4z"/>
<path d="M4625 3080 c-3 -5 -2 -10 2 -12 13 -7 33 -3 36 6 3 12 -31 17 -38 6z"/>
<path d="M4683 3076 c0 -15 22 -15 34 0 4 5 4 6 -1 2 -5 -4 -14 -3 -21 2 -8 7
-12 5 -12 -4z"/>
<path d="M4762 3077 c-9 -10 -6 -13 13 -13 19 0 22 3 13 13 -6 7 -12 13 -13
13 -1 0 -7 -6 -13 -13z"/>
<path d="M4814 3078 c-3 -4 -4 -8 -2 -9 25 -6 35 -5 35 5 0 14 -25 17 -33 4z"/>
<path d="M4881 3076 c-10 -11 -9 -14 1 -12 14 2 23 15 15 22 -2 2 -10 -2 -16
-10z"/>
<path d="M4967 3083 c-10 -9 -9 -23 1 -23 5 0 9 7 9 15 0 17 -1 18 -10 8z"/>
<path d="M5010 3075 c-6 -7 2 -11 29 -11 21 0 38 5 38 11 0 15 -55 15 -67 0z"/>
<path d="M5180 3075 c-6 -8 -2 -11 15 -11 13 0 21 4 19 8 -7 12 10 10 22 -2 7
-7 11 -6 11 3 0 16 -54 18 -67 2z"/>
<path d="M5273 3074 c0 -14 23 -12 37 2 7 7 2 10 -13 10 -13 0 -24 -5 -24 -12z"/>
<path d="M5331 3076 c-7 -8 0 -12 22 -12 18 -1 26 1 19 3 -6 3 -10 8 -8 12 8
12 -23 9 -33 -3z"/>
<path d="M5435 3080 c-3 -5 -5 -10 -3 -11 27 -6 39 -5 45 4 3 7 3 9 -2 5 -4
-4 -14 -3 -21 3 -8 7 -14 7 -19 -1z"/>
<path d="M5525 3080 c-4 -6 -10 -8 -15 -5 -5 3 -11 1 -14 -3 -6 -10 40 -10 49
0 4 3 2 9 -4 12 -5 4 -12 2 -16 -4z"/>
<path d="M5572 3077 c-10 -11 -7 -14 13 -13 14 1 30 8 37 16 11 12 10 12 -3 2
-10 -8 -19 -8 -26 -1 -7 7 -14 5 -21 -4z"/>
<path d="M5679 3073 c-13 -16 -12 -17 4 -4 9 7 17 15 17 17 0 8 -8 3 -21 -13z"/>
<path d="M5714 3078 c-7 -10 -7 -10 42 -12 26 -2 41 2 41 10 0 12 -21 13 -33
1 -10 -10 -26 -9 -20 1 3 5 -2 9 -10 9 -8 0 -17 -4 -20 -9z"/>
<path d="M5814 3079 c-6 -11 -8 -11 39 -13 21 -1 40 1 43 5 2 4 -4 6 -13 4
-10 -1 -22 0 -28 4 -17 9 -35 10 -41 0z"/>
<path d="M5954 3079 c-6 -11 -7 -10 29 -13 19 -2 25 0 18 7 -14 14 -40 17 -47
6z"/>
<path d="M6041 3076 c-10 -11 -9 -14 1 -12 14 2 23 15 15 22 -2 2 -10 -2 -16
-10z"/>
<path d="M6083 3074 c0 -10 16 -12 37 -4 3 1 10 1 15 0 6 -1 6 2 2 6 -13 13
-54 12 -54 -2z"/>
<path d="M6301 3074 c6 -7 16 -11 21 -8 11 7 3 17 -18 20 -12 2 -13 -1 -3 -12z"/>
<path d="M6343 3075 c0 -8 4 -12 9 -9 5 3 6 10 3 15 -9 13 -12 11 -12 -6z"/>
<path d="M3894 3069 c-2 -4 0 -10 5 -13 5 -4 12 -2 16 3 3 5 14 8 25 6 11 -2
22 -1 24 3 3 4 -11 8 -30 8 -20 0 -37 -4 -40 -7z"/>
<path d="M4454 3072 c4 -3 14 -7 22 -8 9 -1 13 0 10 4 -4 3 -14 7 -22 8 -9 1
-13 0 -10 -4z"/>
<path d="M5125 3069 c-3 -4 2 -6 10 -5 21 3 28 13 10 13 -9 0 -18 -4 -20 -8z"/>
<path d="M6155 3071 c-2 -4 12 -7 30 -7 19 0 32 3 29 5 -7 8 -54 9 -59 2z"/>
<path d="M4114 2952 c23 -26 23 -26 23 -7 0 8 -3 13 -5 10 -3 -3 -12 1 -21 7
-10 8 -9 4 3 -10z"/>
<path d="M4173 2954 c9 -11 15 -23 12 -26 -3 -3 3 -11 12 -19 16 -12 17 -12 7
1 -6 8 -10 23 -8 33 1 11 0 16 -3 13 -4 -3 -13 0 -22 6 -12 10 -12 7 2 -8z"/>
<path d="M4224 2959 c-2 -4 0 -10 6 -14 6 -4 7 -12 3 -18 -11 -17 -13 -38 -3
-32 5 3 11 1 15 -5 4 -6 11 -8 16 -4 6 4 6 11 -2 20 -6 8 -8 14 -4 14 4 0 3 6
-4 13 -7 9 -7 17 0 24 6 6 5 10 -6 10 -9 0 -18 -4 -21 -8z m23 -36 c-4 -3 -1
-13 6 -22 11 -14 10 -14 -5 -2 -16 12 -16 31 -1 31 4 0 3 -3 0 -7z"/>
<path d="M4423 2955 c0 -8 4 -12 9 -9 5 3 6 10 3 15 -9 13 -12 11 -12 -6z"/>
<path d="M4482 2956 c-13 -21 -10 -34 7 -32 9 2 16 7 16 12 0 5 3 14 7 20 4 6
0 11 -8 11 -8 0 -18 -5 -22 -11z m15 -11 c0 -8 -4 -12 -9 -9 -5 3 -6 10 -3 15
9 13 12 11 12 -6z"/>
<path d="M4544 2945 c0 -21 3 -22 35 -16 2 1 -2 7 -8 14 -6 8 -9 16 -6 19 3 2
-1 5 -8 5 -7 0 -13 -10 -13 -22z"/>
<path d="M4709 2965 c-1 -3 -2 -8 -3 -12 -1 -5 -4 -13 -8 -19 -4 -6 -1 -11 5
-11 7 0 13 11 13 24 0 21 -4 31 -7 18z"/>
<path d="M4814 2955 c-4 -8 -9 -13 -13 -10 -4 2 -8 -2 -8 -8 0 -7 11 -13 24
-13 15 0 20 3 13 10 -14 14 -13 29 2 20 7 -4 8 -3 4 4 -10 16 -15 15 -22 -3z"/>
<path d="M5171 2957 c-9 -11 -8 -17 2 -26 11 -8 19 -5 38 16 13 15 17 22 8 15
-10 -8 -19 -8 -26 -1 -7 7 -14 5 -22 -4z m23 -18 c-3 -5 -10 -7 -15 -3 -5 3
-7 10 -3 15 3 5 10 7 15 3 5 -3 7 -10 3 -15z"/>
<path d="M5253 2956 c1 -6 -3 -10 -9 -9 -6 1 -11 -4 -11 -11 0 -8 7 -13 16
-11 9 1 16 6 16 11 0 5 3 14 7 20 4 6 1 11 -7 11 -8 0 -13 -5 -12 -11z"/>
<path d="M5322 2959 c2 -7 -3 -13 -9 -14 -19 0 -15 -20 4 -20 18 0 27 31 12
41 -5 3 -8 0 -7 -7z"/>
<path d="M5393 2956 c1 -5 -3 -10 -10 -11 -7 0 -17 -5 -22 -10 -8 -8 -4 -11
14 -11 13 0 22 2 20 5 -3 2 2 12 10 21 13 14 13 17 1 17 -8 0 -14 -5 -13 -11z"/>
<path d="M5459 2963 c-1 -5 -1 -12 0 -17 1 -5 -5 -6 -14 -3 -21 9 -19 0 3 -12
15 -8 18 -6 18 15 0 22 -5 33 -7 17z"/>
<path d="M5503 2958 c-12 -20 -12 -35 1 -35 7 0 12 11 12 24 0 26 -2 28 -13
11z"/>
<path d="M5536 2961 c-5 -13 0 -31 9 -31 6 0 10 3 10 8 0 4 3 12 7 18 4 6 0
11 -8 11 -8 0 -16 -3 -18 -6z"/>
<path d="M5585 2960 c-2 -4 4 -15 14 -24 19 -17 28 -13 27 13 -1 15 -33 24
-41 11z m32 -17 c0 -9 -4 -10 -14 -2 -7 6 -13 12 -13 14 0 1 6 2 13 2 8 0 14
-6 14 -14z"/>
<path d="M5648 2958 c6 -6 9 -16 8 -22 -2 -6 -1 -8 1 -3 3 4 8 5 13 2 5 -3 7
2 6 12 -2 9 -11 18 -21 19 -12 2 -14 -1 -7 -8z"/>
<path d="M5752 2956 c-12 -19 -10 -33 4 -33 7 0 12 5 11 11 -1 6 3 10 9 9 6
-1 11 4 11 11 0 15 -25 17 -35 2z"/>
<path d="M5805 2961 c-3 -5 -1 -12 5 -16 6 -4 8 -10 6 -14 -3 -4 6 -7 20 -7
17 0 21 3 14 11 -6 5 -16 10 -23 10 -7 1 -11 6 -9 13 2 14 -4 16 -13 3z"/>
<path d="M5880 2955 c-13 -16 -12 -17 18 -19 9 -1 24 -5 32 -11 12 -7 13 -6 3
7 -7 8 -9 19 -5 24 4 5 3 6 -2 2 -5 -4 -15 -3 -21 2 -9 7 -16 6 -25 -5z m24
-3 c3 -5 -1 -9 -9 -9 -8 0 -12 4 -9 9 3 4 7 8 9 8 2 0 6 -4 9 -8z"/>
<path d="M5944 2954 c3 -17 14 -29 29 -29 7 -1 11 -6 10 -11 -1 -6 4 -11 12
-11 8 0 11 5 7 11 -4 6 -7 16 -7 21 0 6 -7 10 -15 10 -8 1 -14 6 -13 11 1 6
-4 11 -11 11 -8 0 -13 -6 -12 -13z"/>
<path d="M6016 2962 c-3 -5 1 -9 9 -9 8 0 12 4 9 9 -3 4 -7 8 -9 8 -2 0 -6 -4
-9 -8z"/>
<path d="M6061 2954 c6 -7 16 -11 21 -8 11 7 3 17 -18 20 -12 2 -13 -1 -3 -12z"/>
<path d="M6115 2961 c-3 -5 -2 -12 3 -15 5 -3 9 1 9 9 0 17 -3 19 -12 6z"/>
<path d="M4624 2949 c-3 -5 0 -8 8 -7 7 2 12 -2 11 -9 -1 -6 5 -10 15 -8 9 2
19 4 22 4 2 1 -1 6 -8 13 -15 15 -40 19 -48 7z"/>
<path d="M4739 2946 c6 -7 9 -15 6 -18 -3 -2 1 -5 9 -5 20 0 13 30 -8 33 -13
2 -14 -1 -7 -10z"/>
<path d="M4939 2956 c0 -1 -2 -8 -4 -16 -2 -11 5 -16 21 -16 16 0 20 3 14 11
-6 7 -8 14 -5 17 3 2 -2 5 -10 5 -8 0 -15 -1 -16 -1z"/>
<path d="M5038 2954 c-4 -3 -12 -6 -20 -7 -7 -2 -13 -7 -13 -12 0 -5 6 -10 13
-12 8 -1 11 1 8 4 -3 3 2 12 12 19 9 7 14 14 11 14 -3 0 -8 -3 -11 -6z"/>
<path d="M5705 2941 c2 -19 18 -17 21 2 1 8 -4 14 -11 14 -7 0 -12 -7 -10 -16z"/>
<path d="M4363 2936 c1 -5 -13 -11 -30 -12 -47 -2 -47 -2 -33 -19 7 -8 9 -15
5 -15 -5 0 0 -9 10 -20 10 -12 25 -18 32 -16 7 3 15 1 18 -4 9 -14 38 -5 41
13 1 9 -2 19 -6 22 -5 3 -7 12 -4 19 3 8 0 17 -5 21 -6 3 -9 10 -7 14 3 4 -1
8 -9 8 -8 0 -13 -5 -12 -11z m21 -38 c-12 -19 -14 -39 -3 -32 5 3 6 11 3 17
-4 7 -3 8 1 4 26 -23 7 -42 -22 -24 -7 5 -17 6 -22 3 -5 -3 -14 1 -21 9 -7 8
-9 15 -5 15 4 0 2 6 -4 14 -9 11 -6 13 19 11 17 -1 33 2 36 7 4 6 10 6 16 0 6
-6 7 -16 2 -24z"/>
<path d="M4325 2891 c-3 -5 -2 -12 3 -15 5 -3 9 1 9 9 0 17 -3 19 -12 6z"/>
<path d="M5133 2937 c0 -8 6 -14 14 -14 9 0 10 4 2 14 -6 7 -12 13 -14 13 -1
0 -2 -6 -2 -13z"/>
<path d="M4866 2931 c-3 -4 6 -7 19 -7 14 0 22 2 19 5 -8 8 -34 10 -38 2z"/>
<path d="M4414 2828 c-4 -7 -4 -10 1 -6 4 4 15 2 24 -5 14 -11 14 -10 2 6 -16
20 -18 21 -27 5z"/>
<path d="M4458 2830 c7 -8 18 -15 25 -15 7 -1 11 -6 10 -11 -1 -6 5 -11 12
-11 10 0 12 4 5 12 -5 7 -7 14 -4 18 3 3 -2 4 -13 3 -10 -2 -25 1 -33 7 -13 9
-13 9 -2 -3z"/>
<path d="M4618 2823 c-8 -10 -14 -24 -14 -30 1 -15 20 -18 22 -3 3 21 4 22 17
11 10 -8 18 -7 32 3 14 10 15 15 5 21 -9 5 -11 4 -6 -3 10 -17 -4 -15 -24 3
-15 14 -18 13 -32 -2z m33 -10 c11 -15 11 -16 -1 -6 -11 10 -17 10 -29 0 -14
-11 -14 -10 -2 6 7 9 15 17 16 17 1 0 9 -8 16 -17z"/>
<path d="M4805 2831 c-3 -5 -2 -12 3 -15 5 -3 9 1 9 9 0 17 -3 19 -12 6z"/>
<path d="M5739 2840 c0 -3 -2 -12 -4 -21 -3 -19 11 -19 40 0 13 8 14 11 4 8
-9 -3 -22 0 -28 6 -6 6 -11 9 -12 7z"/>
<path d="M4569 2822 c8 -6 9 -12 3 -16 -6 -3 -13 -2 -17 4 -4 6 -11 8 -16 4
-15 -9 9 -33 29 -30 21 3 23 38 2 43 -12 4 -12 3 -1 -5z"/>
<path d="M4849 2826 c0 -1 -2 -9 -4 -19 -3 -18 -3 -18 16 -1 10 9 19 18 19 19
0 2 -29 3 -31 1z"/>
<path d="M4979 2825 c-5 -20 -4 -32 3 -42 6 -7 3 -15 -9 -22 -12 -7 -13 -10
-4 -11 10 0 11 -3 2 -14 -9 -11 -9 -16 1 -22 7 -4 10 -3 5 1 -4 5 5 22 20 38
16 16 24 27 18 25 -5 -2 -10 2 -10 7 0 6 5 9 10 7 6 -2 6 0 2 5 -5 4 -14 8
-20 8 -7 1 -11 6 -9 13 2 11 -7 18 -9 7z"/>
<path d="M5073 2817 c1 -6 -4 -11 -10 -12 -18 0 -17 -18 1 -21 12 -2 57 35 45
37 -2 0 -12 2 -21 4 -10 2 -16 -2 -15 -8z m27 -1 c0 -2 -8 -10 -17 -17 -16
-13 -17 -12 -4 4 13 16 21 21 21 13z"/>
<path d="M5195 2820 c-4 -6 -10 -8 -15 -5 -5 3 -11 1 -15 -5 -4 -6 -10 -8 -14
-6 -3 3 -7 -10 -7 -28 0 -26 4 -32 22 -32 14 0 21 6 19 16 -1 8 -7 15 -13 15
-13 0 -17 15 -4 16 4 0 14 7 23 15 12 11 18 11 29 1 12 -10 12 -9 1 6 -16 20
-18 20 -26 7z m-15 -56 c0 -8 -19 -13 -24 -6 -3 5 1 9 9 9 8 0 15 -2 15 -3z"/>
<path d="M5519 2827 c0 -1 -2 -10 -4 -19 -4 -24 10 -31 25 -13 7 8 17 12 24 8
6 -3 6 -1 -1 7 -11 11 -41 23 -44 17z m31 -12 c0 -2 -6 -8 -13 -14 -10 -8 -14
-7 -14 2 0 8 6 14 14 14 7 0 13 -1 13 -2z"/>
<path d="M5629 2826 c-1 -1 -2 -13 -3 -29 -3 -25 -2 -26 14 -12 20 18 22 42 3
42 -7 0 -13 -1 -14 -1z m16 -15 c3 -5 2 -12 -3 -15 -5 -3 -9 1 -9 9 0 17 3 19
12 6z"/>
<path d="M4939 2815 c-1 -3 -2 -20 -3 -37 -1 -18 -7 -32 -12 -31 -6 1 -11 -4
-11 -11 0 -25 32 -10 32 15 1 15 6 23 15 21 11 -3 10 1 -3 16 -9 10 -14 22
-10 25 3 4 3 7 0 7 -4 0 -8 -2 -8 -5z"/>
<path d="M4896 2801 c-4 -5 -2 -12 3 -15 5 -4 12 -2 15 3 4 5 2 12 -3 15 -5 4
-12 2 -15 -3z"/>
<path d="M5285 2800 c3 -5 1 -12 -5 -15 -8 -5 -7 -11 1 -21 6 -8 8 -14 4 -14
-4 0 -2 -7 5 -15 13 -16 35 -10 24 6 -3 6 5 8 19 5 21 -4 23 -1 21 22 -1 15
-2 29 -3 31 -1 2 -8 -2 -16 -9 -8 -7 -12 -16 -9 -21 3 -5 1 -9 -4 -9 -16 0
-22 13 -11 27 6 7 10 13 8 14 -31 6 -38 6 -34 -1z m16 -13 c-6 -8 -8 -17 -4
-21 11 -10 12 -37 2 -30 -5 3 -7 9 -4 14 3 5 1 12 -5 15 -10 6 4 35 17 35 3 0
0 -6 -6 -13z m45 -12 c-1 -8 -5 -17 -8 -21 -5 -4 -4 16 1 34 3 9 9 -1 7 -13z"/>
<path d="M5452 2806 c4 -5 3 -15 -3 -22 -6 -7 -6 -14 -1 -18 6 -3 15 0 21 8 9
10 7 17 -6 27 -10 7 -15 9 -11 5z"/>
<path d="M4819 2795 c-1 -3 -2 -8 -3 -12 -1 -5 -5 -13 -9 -20 -11 -17 9 -25
22 -9 8 10 9 16 1 21 -6 3 -8 11 -5 16 4 5 4 9 1 9 -3 0 -7 -2 -7 -5z"/>
<path d="M5222 2776 c-8 -14 -12 -40 -5 -32 4 3 12 1 20 -5 15 -13 14 -13 17
22 3 26 -18 36 -32 15z m24 -22 c2 -12 -1 -13 -12 -3 -7 6 -11 16 -8 21 7 11
17 3 20 -18z"/>
<path d="M5384 2776 c1 -8 5 -18 8 -22 4 -3 5 1 4 10 -1 8 -5 18 -8 22 -4 3
-5 -1 -4 -10z"/>
<path d="M4703 2767 c0 -8 6 -14 14 -14 9 0 10 4 2 14 -6 7 -12 13 -14 13 -1
0 -2 -6 -2 -13z"/>
<path d="M4861 2766 c-7 -8 -8 -17 -3 -20 6 -3 15 1 21 8 7 8 8 17 3 20 -6 3
-15 -1 -21 -8z"/>
<path d="M5009 2749 c-6 -31 -5 -37 7 -35 22 3 25 12 9 26 -8 7 -15 11 -16 9z"/>
<path d="M1894 5311 c-125 -57 -133 -234 -12 -297 38 -20 117 -20 154 -1 107
55 126 177 41 265 -50 52 -115 64 -183 33z"/>
<path d="M8210 5307 c-138 -73 -106 -279 46 -306 83 -15 145 16 183 92 30 61
23 122 -20 171 -59 68 -134 83 -209 43z"/>
<path d="M2935 3309 c-16 -17 -17 -25 -7 -51 9 -24 8 -36 -3 -57 -7 -14 -87
-99 -177 -188 -151 -150 -189 -178 -229 -173 -28 4 -38 0 -44 -20 -5 -14 5
-33 34 -67 22 -27 63 -76 91 -111 61 -75 93 -93 117 -69 14 14 14 22 4 60 -15
53 -8 72 52 134 l40 42 28 -38 c45 -62 101 -112 154 -137 161 -76 356 35 356
202 0 77 -29 131 -116 211 -40 38 -114 116 -165 176 -51 59 -98 107 -105 107
-6 0 -20 -9 -30 -21z m187 -296 c65 -68 74 -116 35 -174 -45 -67 -116 -95
-170 -68 -12 6 -41 30 -65 52 l-42 41 92 93 c51 51 97 93 103 93 6 0 27 -17
47 -37z"/>
<path d="M7013 3053 c-37 -38 -89 -87 -115 -111 -27 -24 -48 -49 -48 -56 0
-25 27 -37 64 -31 34 7 37 5 220 -175 102 -100 188 -191 191 -201 3 -10 1 -28
-5 -40 -23 -42 10 -91 47 -70 23 12 423 401 423 410 0 5 -14 26 -31 47 -17 22
-42 60 -55 87 -13 26 -31 47 -38 47 -28 0 -46 -31 -46 -78 0 -60 -30 -120 -95
-190 l-53 -57 -182 175 -182 175 5 52 c4 39 2 57 -9 68 -9 8 -17 15 -19 15 -2
0 -35 -30 -72 -67z"/>
<path d="M3633 2645 c-122 -33 -203 -102 -259 -219 -43 -89 -55 -161 -42 -241
12 -76 43 -129 113 -193 192 -176 462 -184 611 -19 58 64 90 135 104 232 11
69 10 89 -4 143 -36 142 -167 257 -338 297 -77 18 -117 18 -185 0z m230 -131
c106 -54 134 -158 82 -307 -33 -95 -71 -154 -123 -194 -36 -28 -52 -33 -95
-33 -68 0 -146 36 -183 86 -25 32 -29 46 -28 98 2 117 85 278 173 337 52 34
122 39 174 13z"/>
<path d="M6393 2622 c-34 -20 -86 -50 -115 -67 -48 -27 -53 -33 -53 -65 0 -32
3 -35 34 -40 26 -4 36 -11 42 -30 4 -14 24 -141 44 -283 l36 -258 -20 -35
c-25 -42 -27 -80 -5 -88 21 -8 222 101 241 130 12 19 12 24 -2 38 -9 9 -30 16
-45 16 -35 0 -57 29 -62 80 -3 34 -3 35 107 97 61 34 115 62 120 62 6 1 31
-19 55 -44 l44 -45 -18 -31 c-20 -33 -15 -79 8 -79 7 0 47 20 87 44 41 24 101
59 134 78 42 24 61 41 63 57 5 30 -4 38 -53 45 -21 4 -48 15 -60 25 -280 252
-489 431 -503 431 -9 -1 -45 -18 -79 -38z m235 -363 c2 -5 -1 -9 -6 -9 -5 0
-42 -18 -82 -40 -40 -22 -74 -39 -75 -38 -1 2 -8 48 -14 103 -7 55 -15 116
-18 135 -6 34 -6 34 93 -54 54 -48 101 -92 102 -97z"/>
<path d="M5909 2405 c-7 -6 -175 -33 -284 -45 -173 -19 -320 -42 -332 -52 -9
-7 -13 -37 -12 -92 2 -117 8 -140 40 -144 34 -4 56 18 69 70 6 22 23 51 37 64
32 30 89 42 109 23 19 -20 86 -496 73 -521 -5 -10 -14 -18 -19 -18 -17 0 -42
-48 -35 -69 9 -30 24 -31 141 -10 60 10 128 19 150 19 26 0 51 7 65 19 20 16
22 22 12 44 -7 15 -30 34 -57 46 -26 11 -46 22 -46 24 0 2 -11 80 -25 173 -14
93 -28 203 -31 245 -6 71 -5 78 14 88 11 6 37 11 57 11 29 0 42 -7 63 -32 70
-83 92 -94 116 -56 11 19 -17 182 -36 206 -10 11 -60 17 -69 7z"/>
<path d="M4412 2388 c-22 -22 -13 -52 23 -76 22 -14 35 -30 35 -44 0 -34 -72
-480 -81 -506 -5 -13 -23 -28 -40 -34 -34 -12 -56 -53 -39 -73 6 -7 34 -16 63
-20 29 -4 94 -13 145 -22 73 -12 96 -12 107 -3 22 18 18 43 -10 70 -27 26 -31
64 -16 168 8 57 24 75 56 65 29 -9 40 -28 81 -138 63 -175 99 -210 231 -225
69 -8 80 -7 97 9 26 26 13 56 -36 87 -33 21 -47 41 -79 112 -21 48 -46 100
-54 116 -9 16 -14 30 -13 31 2 1 21 7 44 13 118 34 182 142 153 257 -16 63
-77 116 -166 144 -38 12 -142 30 -233 41 -91 12 -181 25 -200 30 -45 13 -54
12 -68 -2z m395 -154 c36 -13 44 -21 53 -53 10 -39 4 -75 -24 -129 -12 -23
-27 -34 -57 -42 -54 -15 -136 -4 -141 18 -5 16 18 194 27 220 6 16 78 9 142
-14z"/>
</g>
</svg>
